<svg width="332" height="59" viewBox="0 0 332 59" fill="none" xmlns="http://www.w3.org/2000/svg">
<g filter="url(#filter0_d_1_2)">
<mask id="path-1-outside-1_1_2" maskUnits="userSpaceOnUse" x="4" y="-1" width="325" height="52" fill="black">
<rect fill="white" x="4" y="-1" width="325" height="52"/>
<path d="M32.8938 13.875C32.9354 14.1667 32.9563 14.4375 32.9563 14.6875C32.9563 15.2917 32.5083 15.7188 31.6125 15.9688L29.8313 16.5C29.3521 16.5833 28.8938 16.4583 28.4563 16.125C28.0396 15.7708 27.8104 15.3125 27.7688 14.75C27.4354 11.4792 26.7167 9.15625 25.6125 7.78125C25.05 7.57292 24.425 7.46875 23.7375 7.46875C21.6542 7.38542 19.55 8.86458 17.425 11.9062C15.3208 14.9271 13.4875 19.2292 11.925 24.8125C10.3833 30.3958 9.87292 35.0312 10.3938 38.7188C10.9354 42.4062 12.0188 44.4479 13.6438 44.8438C16.8313 44.5521 19.4771 42.0938 21.5813 37.4688C21.9563 36.6146 22.2896 36.1042 22.5813 35.9375C22.8938 35.7708 23.4146 35.8333 24.1438 36.125L26.175 36.9688C26.9458 37.3021 27.0083 38.1562 26.3625 39.5312C24.4042 43.1562 22.4667 45.7292 20.55 47.25C18.6333 48.75 16.2688 49.5 13.4563 49.5C11.9563 49.5833 10.3104 48.9271 8.51875 47.5312C6.72709 46.1146 5.62292 43.1562 5.20625 38.6562C4.81042 34.1562 5.33125 28.9688 6.76875 23.0938C8.22709 17.1979 10.6438 12.25 14.0188 8.25C17.3938 4.22917 20.9771 2.19792 24.7688 2.15625C25.2896 2.15625 25.9979 2.3125 26.8938 2.625C27.7896 2.91667 28.6021 3.34375 29.3313 3.90625C30.0813 4.44792 30.8208 5.64583 31.55 7.5C32.2792 9.35417 32.7271 11.4792 32.8938 13.875ZM50.7188 1.90625L39.0625 47.5938C38.8125 48.5312 38.1667 49 37.125 49H36.0625C34.4792 49 33.8542 48.3125 34.1875 46.9375L45.9063 1.84375C46.1563 0.90625 46.7917 0.4375 47.8125 0.4375H49.2813C50.4896 0.4375 50.9688 0.927083 50.7188 1.90625ZM54.3875 40.1562C53.8042 43.2812 54.3875 45.0104 56.1375 45.3438C57.7 44.7604 59.6375 43.1667 61.95 40.5625C62.3458 40.2083 62.7729 40.1667 63.2313 40.4375L64.45 41.1875C65.0125 41.625 65.2 42.0938 65.0125 42.5938C64.2 44.1354 62.7 45.7708 60.5125 47.5C58.325 49.2292 56.5646 49.9688 55.2313 49.7188C52.2104 48.9479 50.4396 47.3646 49.9188 44.9688C49.3146 41.7604 49.8458 37.3542 51.5125 31.75C53.1792 26.1458 55.5021 21.9167 58.4813 19.0625C59.5229 18.1042 60.8146 17.3958 62.3563 16.9375C63.9188 16.4583 65.5646 16.5833 67.2938 17.3125C69.0229 18.0417 69.8771 20.125 69.8563 23.5625C69.8354 27 68.325 30.25 65.325 33.3125C62.3458 36.3542 58.7 38.6354 54.3875 40.1562ZM55.1688 36C57.1688 35.1458 58.8771 34.1458 60.2938 33C61.7313 31.8542 62.9083 30.4583 63.825 28.8125C64.7625 27.1667 65.2313 25.4792 65.2313 23.75C65.2313 22.0208 64.7313 21.1562 63.7313 21.1562C61.7729 21.1562 60.0542 22.7604 58.575 25.9688C57.1167 29.1562 55.9813 32.5 55.1688 36ZM91.7125 17.7812C91.8792 16.7812 92.3688 16.2812 93.1813 16.2812L94.65 16.2188C96.2125 16.2604 96.7854 17.0312 96.3688 18.5312L88.6813 44.125C90.0146 43.1458 91.3375 41.7396 92.65 39.9062C93.1292 39.2188 93.6604 39.0729 94.2438 39.4688L95.8063 40.5C96.4729 40.9583 96.5771 41.4896 96.1188 42.0938C94.3688 44.1354 92.7542 45.7292 91.275 46.875C89.8167 48 88.0771 48.7917 86.0563 49.25C85.4729 49.3333 85.0875 49.1042 84.9 48.5625L83.7125 45.0312C82.5042 46.6146 81.4729 47.7083 80.6188 48.3125C79.7646 48.8958 79.1083 49.1875 78.65 49.1875H78.525C78.1708 49.1875 77.6396 48.9479 76.9313 48.4688C76.2438 47.9688 75.5563 47.3229 74.8688 46.5312C74.1813 45.7396 73.6813 44.875 73.3688 43.9375C73.0771 43 73.0979 41.3021 73.4313 38.8438C73.7854 36.3646 74.7646 32.9062 76.3688 28.4688C77.9729 24.0312 79.6188 20.9375 81.3063 19.1875C82.9938 17.4375 85.1083 16.5833 87.65 16.625C89.0667 16.625 90.4208 17.0104 91.7125 17.7812ZM90.7438 21.3438C88.4729 20.0729 86.6188 20.0521 85.1813 21.2812C83.7646 22.4896 82.3688 24.9688 80.9938 28.7188C79.6396 32.4688 78.7542 35.4167 78.3375 37.5625C77.9417 39.6875 77.775 41.1354 77.8375 41.9062C77.9 42.6771 78.275 43.2396 78.9625 43.5938C79.65 43.9479 80.7854 43.25 82.3688 41.5C83.9729 39.75 85.3688 37.3542 86.5563 34.3125C87.7646 31.2708 89.1604 26.9479 90.7438 21.3438ZM110.819 25.0625C112.173 22.8542 113.423 21.0208 114.569 19.5625C115.735 18.1042 116.579 17.1979 117.1 16.8438C117.642 16.4688 118.579 16.2812 119.913 16.2812H120.538C121.788 16.2812 122.215 16.7604 121.819 17.7188C121.61 18.2188 121.09 18.8438 120.256 19.5938C119.423 20.3438 118.288 21.625 116.85 23.4375C115.433 25.25 114.725 26.4271 114.725 26.9688C114.725 28.0938 115.256 29.1458 116.319 30.125C116.569 30.3333 116.642 30.5625 116.538 30.8125C116.433 31.0417 116.215 31.1979 115.881 31.2812L113.444 31.7188C112.756 31.8438 112.225 31.7708 111.85 31.5C111.496 31.2292 110.871 30.2604 109.975 28.5938L105.069 47.5938C104.798 48.5312 104.152 49 103.131 49H101.288C100.079 49 99.6104 48.5104 99.8813 47.5312L107.694 17.7812C107.902 16.9271 108.496 16.5 109.475 16.5H111.444C112.006 16.5 112.381 16.5938 112.569 16.7812C112.756 16.9688 112.788 17.3229 112.663 17.8438L110.819 25.0625ZM126.175 26.0312H142.175C142.55 26.0312 142.842 26.1667 143.05 26.4375C143.279 26.7083 143.352 27.0625 143.269 27.5L142.925 29.0938C142.758 29.9896 142.206 30.4375 141.269 30.4375H125.925C124.883 30.4375 124.498 29.9479 124.769 28.9688L125.331 26.7188C125.456 26.2604 125.738 26.0312 126.175 26.0312ZM177.531 13.875C177.573 14.1667 177.594 14.4375 177.594 14.6875C177.594 15.2917 177.146 15.7188 176.25 15.9688L174.469 16.5C173.99 16.5833 173.531 16.4583 173.094 16.125C172.677 15.7708 172.448 15.3125 172.406 14.75C172.073 11.4792 171.354 9.15625 170.25 7.78125C169.688 7.57292 169.062 7.46875 168.375 7.46875C166.292 7.38542 164.188 8.86458 162.062 11.9062C159.958 14.9271 158.125 19.2292 156.562 24.8125C155.021 30.3958 154.51 35.0312 155.031 38.7188C155.573 42.4062 156.656 44.4479 158.281 44.8438C161.469 44.5521 164.115 42.0938 166.219 37.4688C166.594 36.6146 166.927 36.1042 167.219 35.9375C167.531 35.7708 168.052 35.8333 168.781 36.125L170.812 36.9688C171.583 37.3021 171.646 38.1562 171 39.5312C169.042 43.1562 167.104 45.7292 165.188 47.25C163.271 48.75 160.906 49.5 158.094 49.5C156.594 49.5833 154.948 48.9271 153.156 47.5312C151.365 46.1146 150.26 43.1562 149.844 38.6562C149.448 34.1562 149.969 28.9688 151.406 23.0938C152.865 17.1979 155.281 12.25 158.656 8.25C162.031 4.22917 165.615 2.19792 169.406 2.15625C169.927 2.15625 170.635 2.3125 171.531 2.625C172.427 2.91667 173.24 3.34375 173.969 3.90625C174.719 4.44792 175.458 5.64583 176.188 7.5C176.917 9.35417 177.365 11.4792 177.531 13.875ZM179.512 39.7188C179.7 34.0104 181.127 28.6042 183.794 23.5C186.46 18.3958 189.856 15.8854 193.981 15.9688C196.127 16.0938 197.794 17.1667 198.981 19.1875C199.877 20.5833 200.242 22.9479 200.075 26.2812C199.908 32.5938 198.179 38.4375 194.887 43.8125C192.617 47.75 189.565 49.6458 185.731 49.5C184.377 49.4583 183.117 48.8646 181.95 47.7188C180.2 46.0521 179.387 43.3854 179.512 39.7188ZM190.419 42.2812C193.315 37.7188 194.846 32.6146 195.012 26.9688C195.054 24.4688 194.919 22.7917 194.606 21.9375C194.315 21.0833 193.69 20.6458 192.731 20.625C191.773 20.6042 190.898 21.0521 190.106 21.9688C189.315 22.8854 188.544 24.1562 187.794 25.7812C185.898 29.5729 184.867 34.0104 184.7 39.0938C184.617 42.9271 185.283 44.9062 186.7 45.0312C187.929 45.0729 189.169 44.1562 190.419 42.2812ZM211.65 34.4688L218.306 23.4688C219.723 21.1562 221.171 19.4167 222.65 18.25C224.15 17.0833 225.431 16.5 226.494 16.5H227.838C228.525 16.5 229.056 16.6146 229.431 16.8438C229.827 17.0729 230.14 17.5938 230.369 18.4062C230.619 19.2188 230.504 20.4167 230.025 22L222.869 48.0938C222.744 48.6979 222.4 49 221.838 49H218.494C217.869 49 217.702 48.4896 217.994 47.4688L224.713 25.5C225.046 24.3542 225.213 23.6042 225.213 23.25C225.213 22.875 225.067 22.6875 224.775 22.6875C224.483 22.6875 224.129 22.8854 223.713 23.2812C223.317 23.6562 222.775 24.3542 222.088 25.375C221.275 26.5417 220.296 28.0521 219.15 29.9062C218.004 31.7604 216.556 34.0521 214.806 36.7812C211.515 41.8021 209.181 45.5729 207.806 48.0938C207.473 48.6979 206.963 49 206.275 49H204.494C204.244 49 204.035 48.8333 203.869 48.5C203.681 48.1458 203.65 47.7604 203.775 47.3438L211.525 18.1562C211.733 17.0521 212.16 16.5 212.806 16.5H215.431C216.452 16.5 216.796 17.1146 216.463 18.3438L211.65 34.4688ZM241.913 34.4688L248.569 23.4688C249.985 21.1562 251.433 19.4167 252.913 18.25C254.413 17.0833 255.694 16.5 256.756 16.5H258.1C258.788 16.5 259.319 16.6146 259.694 16.8438C260.09 17.0729 260.402 17.5938 260.631 18.4062C260.881 19.2188 260.767 20.4167 260.288 22L253.131 48.0938C253.006 48.6979 252.663 49 252.1 49H248.756C248.131 49 247.965 48.4896 248.256 47.4688L254.975 25.5C255.308 24.3542 255.475 23.6042 255.475 23.25C255.475 22.875 255.329 22.6875 255.038 22.6875C254.746 22.6875 254.392 22.8854 253.975 23.2812C253.579 23.6562 253.038 24.3542 252.35 25.375C251.538 26.5417 250.558 28.0521 249.413 29.9062C248.267 31.7604 246.819 34.0521 245.069 36.7812C241.777 41.8021 239.444 45.5729 238.069 48.0938C237.735 48.6979 237.225 49 236.538 49H234.756C234.506 49 234.298 48.8333 234.131 48.5C233.944 48.1458 233.913 47.7604 234.038 47.3438L241.788 18.1562C241.996 17.0521 242.423 16.5 243.069 16.5H245.694C246.715 16.5 247.058 17.1146 246.725 18.3438L241.913 34.4688ZM269.175 40.1562C268.592 43.2812 269.175 45.0104 270.925 45.3438C272.487 44.7604 274.425 43.1667 276.737 40.5625C277.133 40.2083 277.56 40.1667 278.019 40.4375L279.237 41.1875C279.8 41.625 279.987 42.0938 279.8 42.5938C278.987 44.1354 277.487 45.7708 275.3 47.5C273.112 49.2292 271.352 49.9688 270.019 49.7188C266.998 48.9479 265.227 47.3646 264.706 44.9688C264.102 41.7604 264.633 37.3542 266.3 31.75C267.967 26.1458 270.29 21.9167 273.269 19.0625C274.31 18.1042 275.602 17.3958 277.144 16.9375C278.706 16.4583 280.352 16.5833 282.081 17.3125C283.81 18.0417 284.665 20.125 284.644 23.5625C284.623 27 283.112 30.25 280.112 33.3125C277.133 36.3542 273.487 38.6354 269.175 40.1562ZM269.956 36C271.956 35.1458 273.665 34.1458 275.081 33C276.519 31.8542 277.696 30.4583 278.612 28.8125C279.55 27.1667 280.019 25.4792 280.019 23.75C280.019 22.0208 279.519 21.1562 278.519 21.1562C276.56 21.1562 274.842 22.7604 273.362 25.9688C271.904 29.1562 270.769 32.5 269.956 36ZM308.156 20.0625C308.844 20.7917 308.927 21.4583 308.406 22.0625L307.344 23.2812C306.615 24.0938 305.969 24.1979 305.406 23.5938L304.719 22.8125C303.177 21.25 301.958 20.5729 301.062 20.7812C299.521 21.0729 297.896 22.7188 296.188 25.7188C294.479 28.6979 293.25 31.7812 292.5 34.9688C291.771 38.1354 291.594 40.7812 291.969 42.9062C292.052 43.4271 292.448 43.9062 293.156 44.3438C293.865 44.7604 294.406 44.9271 294.781 44.8438C296.073 44.1562 297.5 42.875 299.062 41C299.542 40.3542 300.229 40.3125 301.125 40.875L302.094 41.5C303.448 42.3125 302.292 44.1979 298.625 47.1562C297.083 48.4688 295.885 49.2396 295.031 49.4688C294.177 49.7188 292.885 49.4062 291.156 48.5312C289.448 47.6562 288.396 46.7917 288 45.9375C286.812 43.3333 286.792 39.6354 287.938 34.8438C289.083 30.0312 290.49 26.3542 292.156 23.8125C293.823 21.2708 295.458 19.3438 297.062 18.0312C298.667 16.6979 300.396 16.125 302.25 16.3125C304.104 16.4792 306.073 17.7292 308.156 20.0625ZM325.575 6.625L323.075 16.5H326.388C327.325 16.5 327.648 16.9688 327.356 17.9062L326.919 19.5625C326.606 20.5 326.044 20.9688 325.231 20.9688H321.919L315.138 47.5938C314.888 48.5312 314.242 49 313.2 49H312.013C311.325 49 310.835 48.8125 310.544 48.4375C310.273 48.0417 310.2 47.5417 310.325 46.9375L316.981 20.9688H314.419C313.565 20.9688 313.294 20.4583 313.606 19.4375L314.106 17.7188C314.356 16.9062 314.825 16.5 315.513 16.5H318.075L320.638 6.5625C320.888 5.625 321.523 5.15625 322.544 5.15625H324.169C325.356 5.15625 325.825 5.64583 325.575 6.625Z"/>
</mask>
<path d="M32.8938 13.875C32.9354 14.1667 32.9563 14.4375 32.9563 14.6875C32.9563 15.2917 32.5083 15.7188 31.6125 15.9688L29.8313 16.5C29.3521 16.5833 28.8938 16.4583 28.4563 16.125C28.0396 15.7708 27.8104 15.3125 27.7688 14.75C27.4354 11.4792 26.7167 9.15625 25.6125 7.78125C25.05 7.57292 24.425 7.46875 23.7375 7.46875C21.6542 7.38542 19.55 8.86458 17.425 11.9062C15.3208 14.9271 13.4875 19.2292 11.925 24.8125C10.3833 30.3958 9.87292 35.0312 10.3938 38.7188C10.9354 42.4062 12.0188 44.4479 13.6438 44.8438C16.8313 44.5521 19.4771 42.0938 21.5813 37.4688C21.9563 36.6146 22.2896 36.1042 22.5813 35.9375C22.8938 35.7708 23.4146 35.8333 24.1438 36.125L26.175 36.9688C26.9458 37.3021 27.0083 38.1562 26.3625 39.5312C24.4042 43.1562 22.4667 45.7292 20.55 47.25C18.6333 48.75 16.2688 49.5 13.4563 49.5C11.9563 49.5833 10.3104 48.9271 8.51875 47.5312C6.72709 46.1146 5.62292 43.1562 5.20625 38.6562C4.81042 34.1562 5.33125 28.9688 6.76875 23.0938C8.22709 17.1979 10.6438 12.25 14.0188 8.25C17.3938 4.22917 20.9771 2.19792 24.7688 2.15625C25.2896 2.15625 25.9979 2.3125 26.8938 2.625C27.7896 2.91667 28.6021 3.34375 29.3313 3.90625C30.0813 4.44792 30.8208 5.64583 31.55 7.5C32.2792 9.35417 32.7271 11.4792 32.8938 13.875ZM50.7188 1.90625L39.0625 47.5938C38.8125 48.5312 38.1667 49 37.125 49H36.0625C34.4792 49 33.8542 48.3125 34.1875 46.9375L45.9063 1.84375C46.1563 0.90625 46.7917 0.4375 47.8125 0.4375H49.2813C50.4896 0.4375 50.9688 0.927083 50.7188 1.90625ZM54.3875 40.1562C53.8042 43.2812 54.3875 45.0104 56.1375 45.3438C57.7 44.7604 59.6375 43.1667 61.95 40.5625C62.3458 40.2083 62.7729 40.1667 63.2313 40.4375L64.45 41.1875C65.0125 41.625 65.2 42.0938 65.0125 42.5938C64.2 44.1354 62.7 45.7708 60.5125 47.5C58.325 49.2292 56.5646 49.9688 55.2313 49.7188C52.2104 48.9479 50.4396 47.3646 49.9188 44.9688C49.3146 41.7604 49.8458 37.3542 51.5125 31.75C53.1792 26.1458 55.5021 21.9167 58.4813 19.0625C59.5229 18.1042 60.8146 17.3958 62.3563 16.9375C63.9188 16.4583 65.5646 16.5833 67.2938 17.3125C69.0229 18.0417 69.8771 20.125 69.8563 23.5625C69.8354 27 68.325 30.25 65.325 33.3125C62.3458 36.3542 58.7 38.6354 54.3875 40.1562ZM55.1688 36C57.1688 35.1458 58.8771 34.1458 60.2938 33C61.7313 31.8542 62.9083 30.4583 63.825 28.8125C64.7625 27.1667 65.2313 25.4792 65.2313 23.75C65.2313 22.0208 64.7313 21.1562 63.7313 21.1562C61.7729 21.1562 60.0542 22.7604 58.575 25.9688C57.1167 29.1562 55.9813 32.5 55.1688 36ZM91.7125 17.7812C91.8792 16.7812 92.3688 16.2812 93.1813 16.2812L94.65 16.2188C96.2125 16.2604 96.7854 17.0312 96.3688 18.5312L88.6813 44.125C90.0146 43.1458 91.3375 41.7396 92.65 39.9062C93.1292 39.2188 93.6604 39.0729 94.2438 39.4688L95.8063 40.5C96.4729 40.9583 96.5771 41.4896 96.1188 42.0938C94.3688 44.1354 92.7542 45.7292 91.275 46.875C89.8167 48 88.0771 48.7917 86.0563 49.25C85.4729 49.3333 85.0875 49.1042 84.9 48.5625L83.7125 45.0312C82.5042 46.6146 81.4729 47.7083 80.6188 48.3125C79.7646 48.8958 79.1083 49.1875 78.65 49.1875H78.525C78.1708 49.1875 77.6396 48.9479 76.9313 48.4688C76.2438 47.9688 75.5563 47.3229 74.8688 46.5312C74.1813 45.7396 73.6813 44.875 73.3688 43.9375C73.0771 43 73.0979 41.3021 73.4313 38.8438C73.7854 36.3646 74.7646 32.9062 76.3688 28.4688C77.9729 24.0312 79.6188 20.9375 81.3063 19.1875C82.9938 17.4375 85.1083 16.5833 87.65 16.625C89.0667 16.625 90.4208 17.0104 91.7125 17.7812ZM90.7438 21.3438C88.4729 20.0729 86.6188 20.0521 85.1813 21.2812C83.7646 22.4896 82.3688 24.9688 80.9938 28.7188C79.6396 32.4688 78.7542 35.4167 78.3375 37.5625C77.9417 39.6875 77.775 41.1354 77.8375 41.9062C77.9 42.6771 78.275 43.2396 78.9625 43.5938C79.65 43.9479 80.7854 43.25 82.3688 41.5C83.9729 39.75 85.3688 37.3542 86.5563 34.3125C87.7646 31.2708 89.1604 26.9479 90.7438 21.3438ZM110.819 25.0625C112.173 22.8542 113.423 21.0208 114.569 19.5625C115.735 18.1042 116.579 17.1979 117.1 16.8438C117.642 16.4688 118.579 16.2812 119.913 16.2812H120.538C121.788 16.2812 122.215 16.7604 121.819 17.7188C121.61 18.2188 121.09 18.8438 120.256 19.5938C119.423 20.3438 118.288 21.625 116.85 23.4375C115.433 25.25 114.725 26.4271 114.725 26.9688C114.725 28.0938 115.256 29.1458 116.319 30.125C116.569 30.3333 116.642 30.5625 116.538 30.8125C116.433 31.0417 116.215 31.1979 115.881 31.2812L113.444 31.7188C112.756 31.8438 112.225 31.7708 111.85 31.5C111.496 31.2292 110.871 30.2604 109.975 28.5938L105.069 47.5938C104.798 48.5312 104.152 49 103.131 49H101.288C100.079 49 99.6104 48.5104 99.8813 47.5312L107.694 17.7812C107.902 16.9271 108.496 16.5 109.475 16.5H111.444C112.006 16.5 112.381 16.5938 112.569 16.7812C112.756 16.9688 112.788 17.3229 112.663 17.8438L110.819 25.0625ZM126.175 26.0312H142.175C142.55 26.0312 142.842 26.1667 143.05 26.4375C143.279 26.7083 143.352 27.0625 143.269 27.5L142.925 29.0938C142.758 29.9896 142.206 30.4375 141.269 30.4375H125.925C124.883 30.4375 124.498 29.9479 124.769 28.9688L125.331 26.7188C125.456 26.2604 125.738 26.0312 126.175 26.0312ZM177.531 13.875C177.573 14.1667 177.594 14.4375 177.594 14.6875C177.594 15.2917 177.146 15.7188 176.25 15.9688L174.469 16.5C173.99 16.5833 173.531 16.4583 173.094 16.125C172.677 15.7708 172.448 15.3125 172.406 14.75C172.073 11.4792 171.354 9.15625 170.25 7.78125C169.688 7.57292 169.062 7.46875 168.375 7.46875C166.292 7.38542 164.188 8.86458 162.062 11.9062C159.958 14.9271 158.125 19.2292 156.562 24.8125C155.021 30.3958 154.51 35.0312 155.031 38.7188C155.573 42.4062 156.656 44.4479 158.281 44.8438C161.469 44.5521 164.115 42.0938 166.219 37.4688C166.594 36.6146 166.927 36.1042 167.219 35.9375C167.531 35.7708 168.052 35.8333 168.781 36.125L170.812 36.9688C171.583 37.3021 171.646 38.1562 171 39.5312C169.042 43.1562 167.104 45.7292 165.188 47.25C163.271 48.75 160.906 49.5 158.094 49.5C156.594 49.5833 154.948 48.9271 153.156 47.5312C151.365 46.1146 150.26 43.1562 149.844 38.6562C149.448 34.1562 149.969 28.9688 151.406 23.0938C152.865 17.1979 155.281 12.25 158.656 8.25C162.031 4.22917 165.615 2.19792 169.406 2.15625C169.927 2.15625 170.635 2.3125 171.531 2.625C172.427 2.91667 173.24 3.34375 173.969 3.90625C174.719 4.44792 175.458 5.64583 176.188 7.5C176.917 9.35417 177.365 11.4792 177.531 13.875ZM179.512 39.7188C179.7 34.0104 181.127 28.6042 183.794 23.5C186.46 18.3958 189.856 15.8854 193.981 15.9688C196.127 16.0938 197.794 17.1667 198.981 19.1875C199.877 20.5833 200.242 22.9479 200.075 26.2812C199.908 32.5938 198.179 38.4375 194.887 43.8125C192.617 47.75 189.565 49.6458 185.731 49.5C184.377 49.4583 183.117 48.8646 181.95 47.7188C180.2 46.0521 179.387 43.3854 179.512 39.7188ZM190.419 42.2812C193.315 37.7188 194.846 32.6146 195.012 26.9688C195.054 24.4688 194.919 22.7917 194.606 21.9375C194.315 21.0833 193.69 20.6458 192.731 20.625C191.773 20.6042 190.898 21.0521 190.106 21.9688C189.315 22.8854 188.544 24.1562 187.794 25.7812C185.898 29.5729 184.867 34.0104 184.7 39.0938C184.617 42.9271 185.283 44.9062 186.7 45.0312C187.929 45.0729 189.169 44.1562 190.419 42.2812ZM211.65 34.4688L218.306 23.4688C219.723 21.1562 221.171 19.4167 222.65 18.25C224.15 17.0833 225.431 16.5 226.494 16.5H227.838C228.525 16.5 229.056 16.6146 229.431 16.8438C229.827 17.0729 230.14 17.5938 230.369 18.4062C230.619 19.2188 230.504 20.4167 230.025 22L222.869 48.0938C222.744 48.6979 222.4 49 221.838 49H218.494C217.869 49 217.702 48.4896 217.994 47.4688L224.713 25.5C225.046 24.3542 225.213 23.6042 225.213 23.25C225.213 22.875 225.067 22.6875 224.775 22.6875C224.483 22.6875 224.129 22.8854 223.713 23.2812C223.317 23.6562 222.775 24.3542 222.088 25.375C221.275 26.5417 220.296 28.0521 219.15 29.9062C218.004 31.7604 216.556 34.0521 214.806 36.7812C211.515 41.8021 209.181 45.5729 207.806 48.0938C207.473 48.6979 206.963 49 206.275 49H204.494C204.244 49 204.035 48.8333 203.869 48.5C203.681 48.1458 203.65 47.7604 203.775 47.3438L211.525 18.1562C211.733 17.0521 212.16 16.5 212.806 16.5H215.431C216.452 16.5 216.796 17.1146 216.463 18.3438L211.65 34.4688ZM241.913 34.4688L248.569 23.4688C249.985 21.1562 251.433 19.4167 252.913 18.25C254.413 17.0833 255.694 16.5 256.756 16.5H258.1C258.788 16.5 259.319 16.6146 259.694 16.8438C260.09 17.0729 260.402 17.5938 260.631 18.4062C260.881 19.2188 260.767 20.4167 260.288 22L253.131 48.0938C253.006 48.6979 252.663 49 252.1 49H248.756C248.131 49 247.965 48.4896 248.256 47.4688L254.975 25.5C255.308 24.3542 255.475 23.6042 255.475 23.25C255.475 22.875 255.329 22.6875 255.038 22.6875C254.746 22.6875 254.392 22.8854 253.975 23.2812C253.579 23.6562 253.038 24.3542 252.35 25.375C251.538 26.5417 250.558 28.0521 249.413 29.9062C248.267 31.7604 246.819 34.0521 245.069 36.7812C241.777 41.8021 239.444 45.5729 238.069 48.0938C237.735 48.6979 237.225 49 236.538 49H234.756C234.506 49 234.298 48.8333 234.131 48.5C233.944 48.1458 233.913 47.7604 234.038 47.3438L241.788 18.1562C241.996 17.0521 242.423 16.5 243.069 16.5H245.694C246.715 16.5 247.058 17.1146 246.725 18.3438L241.913 34.4688ZM269.175 40.1562C268.592 43.2812 269.175 45.0104 270.925 45.3438C272.487 44.7604 274.425 43.1667 276.737 40.5625C277.133 40.2083 277.56 40.1667 278.019 40.4375L279.237 41.1875C279.8 41.625 279.987 42.0938 279.8 42.5938C278.987 44.1354 277.487 45.7708 275.3 47.5C273.112 49.2292 271.352 49.9688 270.019 49.7188C266.998 48.9479 265.227 47.3646 264.706 44.9688C264.102 41.7604 264.633 37.3542 266.3 31.75C267.967 26.1458 270.29 21.9167 273.269 19.0625C274.31 18.1042 275.602 17.3958 277.144 16.9375C278.706 16.4583 280.352 16.5833 282.081 17.3125C283.81 18.0417 284.665 20.125 284.644 23.5625C284.623 27 283.112 30.25 280.112 33.3125C277.133 36.3542 273.487 38.6354 269.175 40.1562ZM269.956 36C271.956 35.1458 273.665 34.1458 275.081 33C276.519 31.8542 277.696 30.4583 278.612 28.8125C279.55 27.1667 280.019 25.4792 280.019 23.75C280.019 22.0208 279.519 21.1562 278.519 21.1562C276.56 21.1562 274.842 22.7604 273.362 25.9688C271.904 29.1562 270.769 32.5 269.956 36ZM308.156 20.0625C308.844 20.7917 308.927 21.4583 308.406 22.0625L307.344 23.2812C306.615 24.0938 305.969 24.1979 305.406 23.5938L304.719 22.8125C303.177 21.25 301.958 20.5729 301.062 20.7812C299.521 21.0729 297.896 22.7188 296.188 25.7188C294.479 28.6979 293.25 31.7812 292.5 34.9688C291.771 38.1354 291.594 40.7812 291.969 42.9062C292.052 43.4271 292.448 43.9062 293.156 44.3438C293.865 44.7604 294.406 44.9271 294.781 44.8438C296.073 44.1562 297.5 42.875 299.062 41C299.542 40.3542 300.229 40.3125 301.125 40.875L302.094 41.5C303.448 42.3125 302.292 44.1979 298.625 47.1562C297.083 48.4688 295.885 49.2396 295.031 49.4688C294.177 49.7188 292.885 49.4062 291.156 48.5312C289.448 47.6562 288.396 46.7917 288 45.9375C286.812 43.3333 286.792 39.6354 287.938 34.8438C289.083 30.0312 290.49 26.3542 292.156 23.8125C293.823 21.2708 295.458 19.3438 297.062 18.0312C298.667 16.6979 300.396 16.125 302.25 16.3125C304.104 16.4792 306.073 17.7292 308.156 20.0625ZM325.575 6.625L323.075 16.5H326.388C327.325 16.5 327.648 16.9688 327.356 17.9062L326.919 19.5625C326.606 20.5 326.044 20.9688 325.231 20.9688H321.919L315.138 47.5938C314.888 48.5312 314.242 49 313.2 49H312.013C311.325 49 310.835 48.8125 310.544 48.4375C310.273 48.0417 310.2 47.5417 310.325 46.9375L316.981 20.9688H314.419C313.565 20.9688 313.294 20.4583 313.606 19.4375L314.106 17.7188C314.356 16.9062 314.825 16.5 315.513 16.5H318.075L320.638 6.5625C320.888 5.625 321.523 5.15625 322.544 5.15625H324.169C325.356 5.15625 325.825 5.64583 325.575 6.625Z" fill="#1FA0F5"/>
<path d="M32.8938 13.875L31.8962 13.9444L31.8987 13.9805L31.9038 14.0164L32.8938 13.875ZM31.6125 15.9688L31.3437 15.0056L31.3352 15.0079L31.3267 15.0105L31.6125 15.9688ZM29.8313 16.5L30.0026 17.4852L30.0606 17.4751L30.1171 17.4583L29.8313 16.5ZM28.4563 16.125L27.8086 16.8869L27.829 16.9042L27.8502 16.9204L28.4563 16.125ZM27.7688 14.75L28.766 14.6761L28.765 14.6624L28.7636 14.6486L27.7688 14.75ZM25.6125 7.78125L26.3922 7.15512L26.2191 6.93953L25.9598 6.8435L25.6125 7.78125ZM23.7375 7.46875L23.6975 8.46795L23.7175 8.46875H23.7375V7.46875ZM17.425 11.9062L16.6052 11.3335L16.6044 11.3347L17.425 11.9062ZM11.925 24.8125L10.962 24.543L10.9611 24.5463L11.925 24.8125ZM10.3938 38.7188L9.40357 38.8586L9.40437 38.8641L10.3938 38.7188ZM13.6438 44.8438L13.4071 45.8153L13.569 45.8548L13.7349 45.8396L13.6438 44.8438ZM21.5813 37.4688L22.4916 37.8829L22.4969 37.8707L21.5813 37.4688ZM22.5813 35.9375L22.1107 35.0551L22.0978 35.062L22.0851 35.0693L22.5813 35.9375ZM24.1438 36.125L24.5274 35.2014L24.5151 35.1965L24.1438 36.125ZM26.175 36.9688L26.5719 36.0509L26.5653 36.048L26.5586 36.0453L26.175 36.9688ZM26.3625 39.5312L27.2423 40.0066L27.2557 39.9818L27.2676 39.9564L26.3625 39.5312ZM20.55 47.25L21.1663 48.0375L21.1716 48.0334L20.55 47.25ZM13.4563 49.5V48.5H13.4285L13.4008 48.5015L13.4563 49.5ZM8.51875 47.5312L7.8985 48.3157L7.90418 48.3201L8.51875 47.5312ZM5.20625 38.6562L4.21009 38.7439L4.21051 38.7484L5.20625 38.6562ZM6.76875 23.0938L5.79801 22.8536L5.79741 22.8561L6.76875 23.0938ZM14.0188 8.25L14.783 8.89487L14.7847 8.89291L14.0188 8.25ZM24.7688 2.15625L24.7688 1.15619L24.7578 1.15631L24.7688 2.15625ZM26.8938 2.625L26.5644 3.5692L26.5742 3.57264L26.5842 3.57587L26.8938 2.625ZM29.3313 3.90625L28.7204 4.69803L28.733 4.70768L28.7458 4.71693L29.3313 3.90625ZM31.9038 14.0164C31.9399 14.2693 31.9563 14.4923 31.9563 14.6875H33.9563C33.9563 14.3827 33.9309 14.0641 33.8837 13.7336L31.9038 14.0164ZM31.9563 14.6875C31.9563 14.7119 31.9524 14.715 31.9551 14.709C31.9574 14.7036 31.9553 14.7133 31.9302 14.7372C31.8698 14.7948 31.7067 14.9043 31.3437 15.0056L31.8813 16.9319C32.4142 16.7832 32.9229 16.5541 33.3104 16.1847C33.7268 15.7876 33.9563 15.2705 33.9563 14.6875H31.9563ZM31.3267 15.0105L29.5454 15.5417L30.1171 17.4583L31.8983 16.927L31.3267 15.0105ZM29.6599 15.5148C29.4922 15.5439 29.3103 15.5186 29.0623 15.3296L27.8502 16.9204C28.4772 17.3981 29.2119 17.6227 30.0026 17.4852L29.6599 15.5148ZM29.1039 15.3631C28.8982 15.1882 28.7886 14.9811 28.766 14.6761L26.7715 14.8239C26.8322 15.6439 27.1809 16.3534 27.8086 16.8869L29.1039 15.3631ZM28.7636 14.6486C28.4251 11.3272 27.683 8.76245 26.3922 7.15512L24.8328 8.40738C25.7504 9.55005 26.4457 11.6311 26.7739 14.8514L28.7636 14.6486ZM25.9598 6.8435C25.2712 6.58845 24.5265 6.46875 23.7375 6.46875V8.46875C24.3236 8.46875 24.8288 8.55738 25.2652 8.719L25.9598 6.8435ZM23.7775 6.46955C21.1555 6.36467 18.7751 8.22773 16.6052 11.3335L18.2448 12.479C20.3249 9.50144 22.1529 8.40616 23.6975 8.46795L23.7775 6.46955ZM16.6044 11.3347C14.4103 14.4848 12.5394 18.9064 10.962 24.543L12.888 25.082C14.4356 19.5519 16.2314 15.3694 18.2456 12.4778L16.6044 11.3347ZM10.9611 24.5463C9.40106 30.1961 8.85592 34.9812 9.40358 38.8586L11.3839 38.5789C10.8899 35.0813 11.3656 30.5955 12.8889 25.0787L10.9611 24.5463ZM9.40437 38.8641C9.68292 40.7604 10.1113 42.3199 10.7292 43.4843C11.3516 44.6573 12.2233 45.527 13.4071 45.8153L13.8804 43.8722C13.4392 43.7647 12.9568 43.4156 12.4959 42.5469C12.0304 41.6697 11.6462 40.3646 11.3831 38.5734L9.40437 38.8641ZM13.7349 45.8396C17.4582 45.4989 20.3315 42.6305 22.4915 37.8829L20.671 37.0546C18.6227 41.557 16.2043 43.6053 13.5526 43.8479L13.7349 45.8396ZM22.4969 37.8707C22.6726 37.4706 22.8245 37.1839 22.9498 36.9921C23.0896 36.7781 23.14 36.7699 23.0774 36.8057L22.0851 35.0693C21.7308 35.2717 21.4688 35.6021 21.2752 35.8985C21.0672 36.2171 20.8649 36.6128 20.6656 37.0668L22.4969 37.8707ZM23.0518 36.8199C22.9597 36.869 22.9373 36.8343 23.0871 36.8523C23.2296 36.8693 23.4528 36.9257 23.7724 37.0535L24.5151 35.1965C24.1055 35.0327 23.7038 34.9119 23.3254 34.8665C22.9544 34.822 22.5153 34.8393 22.1107 35.0551L23.0518 36.8199ZM23.7601 37.0485L25.7914 37.8922L26.5586 36.0453L24.5274 35.2015L23.7601 37.0485ZM25.7781 37.8866C25.8285 37.9084 25.8196 37.9162 25.8018 37.8908C25.7847 37.8665 25.7978 37.8662 25.8027 37.9324C25.8151 38.1021 25.7559 38.4705 25.4574 39.1061L27.2676 39.9564C27.6149 39.217 27.8474 38.4709 27.7973 37.7864C27.7709 37.4255 27.6643 37.0632 27.4389 36.742C27.2127 36.4197 26.907 36.1958 26.5719 36.0509L25.7781 37.8866ZM25.4827 39.0559C23.5506 42.6323 21.6905 45.0685 19.9284 46.4666L21.1716 48.0334C23.2429 46.3898 25.2577 43.6802 27.2423 40.0066L25.4827 39.0559ZM19.9337 46.4625C18.2196 47.804 16.0817 48.5 13.4563 48.5V50.5C16.4558 50.5 19.0471 49.696 21.1663 48.0375L19.9337 46.4625ZM13.4008 48.5015C12.2394 48.5661 10.8286 48.0631 9.13333 46.7424L7.90418 48.3201C9.79226 49.7911 11.6731 50.6006 13.5117 50.4985L13.4008 48.5015ZM9.13899 46.7468C7.69455 45.6047 6.61512 43.0258 6.20199 38.5641L4.21051 38.7484C4.63072 43.2867 5.75963 46.6245 7.89852 48.3157L9.13899 46.7468ZM6.20241 38.5686C5.8188 34.2076 6.32037 29.1338 7.7401 23.3314L5.79741 22.8561C4.34214 28.8037 3.80204 34.1049 4.2101 38.7439L6.20241 38.5686ZM7.7395 23.3339C9.16689 17.5631 11.5217 12.7601 14.783 8.89487L13.2545 7.60513C9.76577 11.7399 7.28728 16.8327 5.79801 22.8536L7.7395 23.3339ZM14.7847 8.89291C18.0475 5.00578 21.3794 3.19356 24.7797 3.15619L24.7578 1.15631C20.5747 1.20228 16.74 3.45256 13.2528 7.60709L14.7847 8.89291ZM24.7688 3.15625C25.1205 3.15625 25.7024 3.2685 26.5644 3.5692L27.2231 1.6808C26.2935 1.3565 25.4587 1.15625 24.7688 1.15625V3.15625ZM26.5842 3.57587C27.3738 3.83295 28.0839 4.20702 28.7204 4.69803L29.9421 3.11447C29.1202 2.48048 28.2054 2.00038 27.2033 1.67413L26.5842 3.57587ZM28.7458 4.71693C29.2423 5.07551 29.8962 6.02692 30.6194 7.86598L32.4806 7.13402C31.7455 5.26475 30.9203 3.82033 29.9167 3.09557L28.7458 4.71693ZM30.6194 7.86598C31.3045 9.60813 31.7352 11.6301 31.8962 13.9444L33.8913 13.8056C33.719 11.3282 33.2538 9.1002 32.4806 7.13402L30.6194 7.86598ZM50.7188 1.90625L49.7498 1.65887L49.7498 1.65904L50.7188 1.90625ZM39.0625 47.5938L40.0288 47.8514L40.0315 47.841L39.0625 47.5938ZM34.1875 46.9375L33.2197 46.686L33.2176 46.6939L33.2157 46.7019L34.1875 46.9375ZM45.9063 1.84375L44.94 1.58608L44.9384 1.59223L45.9063 1.84375ZM49.7498 1.65904L38.0935 47.3465L40.0315 47.841L51.6877 2.15346L49.7498 1.65904ZM38.0963 47.3361C38.0172 47.6325 37.9026 47.767 37.8032 47.8391C37.6966 47.9165 37.499 48 37.125 48V50C37.7926 50 38.4388 49.8491 38.978 49.4577C39.5245 49.0611 39.8578 48.4925 40.0287 47.8514L38.0963 47.3361ZM37.125 48H36.0625V50H37.125V48ZM36.0625 48C35.3641 48 35.1715 47.8395 35.1462 47.8117C35.1409 47.8059 35.1192 47.7839 35.1073 47.6998C35.0937 47.6034 35.0958 47.4352 35.1594 47.1731L33.2157 46.7019C33.0137 47.535 33.0311 48.4583 33.6663 49.157C34.266 49.8167 35.1776 50 36.0625 50V48ZM35.1554 47.189L46.8741 2.09527L44.9384 1.59223L33.2197 46.686L35.1554 47.189ZM46.8725 2.10141C46.9528 1.80039 47.0678 1.66476 47.164 1.59379C47.2653 1.519 47.4531 1.4375 47.8125 1.4375V-0.5625C47.1511 -0.5625 46.5107 -0.409621 45.9767 -0.0156616C45.4375 0.382116 45.1097 0.949615 44.94 1.58609L46.8725 2.10141ZM47.8125 1.4375H49.2813V-0.5625H47.8125V1.4375ZM49.2813 1.4375C49.5217 1.4375 49.6785 1.46253 49.7722 1.48969C49.8634 1.51616 49.8623 1.53486 49.8322 1.50415C49.8172 1.4888 49.803 1.46897 49.7927 1.44769C49.7827 1.42713 49.781 1.41497 49.7815 1.41783C49.7832 1.42883 49.7902 1.50088 49.7498 1.65887L51.6877 2.15363C51.8545 1.50003 51.8493 0.705711 51.2615 0.105224C50.7331 -0.434676 49.9644 -0.5625 49.2813 -0.5625V1.4375ZM54.3875 40.1562L54.0549 39.2132L53.5104 39.4052L53.4045 39.9728L54.3875 40.1562ZM56.1375 45.3438L55.9504 46.3261L56.2252 46.3784L56.4873 46.2806L56.1375 45.3438ZM61.95 40.5625L61.2832 39.8173L61.2404 39.8556L61.2023 39.8985L61.95 40.5625ZM63.2313 40.4375L63.7554 39.5858L63.7477 39.5811L63.74 39.5766L63.2313 40.4375ZM64.45 41.1875L65.0639 40.3981L65.0207 40.3645L64.9741 40.3358L64.45 41.1875ZM65.0125 42.5938L65.8972 43.06L65.9266 43.0041L65.9488 42.9449L65.0125 42.5938ZM55.2313 49.7188L54.984 50.6877L55.0153 50.6957L55.047 50.7016L55.2313 49.7188ZM49.9188 44.9688L48.936 45.1538L48.9386 45.1675L48.9416 45.1812L49.9188 44.9688ZM58.4813 19.0625L57.8042 18.3266L57.7968 18.3334L57.7895 18.3404L58.4813 19.0625ZM62.3563 16.9375L62.6412 17.8961L62.6494 17.8936L62.3563 16.9375ZM67.2938 17.3125L67.6823 16.3911L67.2938 17.3125ZM65.325 33.3125L64.6106 32.6127L64.6106 32.6128L65.325 33.3125ZM55.1688 36L54.1947 35.7739L53.749 37.6937L55.5615 36.9196L55.1688 36ZM60.2938 33L59.6704 32.218L59.6649 32.2225L60.2938 33ZM63.825 28.8125L62.956 28.3175L62.9514 28.3259L63.825 28.8125ZM58.575 25.9688L57.6669 25.5501L57.6657 25.5527L58.575 25.9688ZM53.4045 39.9728C53.1016 41.5951 53.0669 43.0106 53.44 44.1165C53.8435 45.3127 54.7103 46.0899 55.9504 46.3261L56.3246 44.3614C55.8147 44.2643 55.5149 44.0102 55.335 43.4772C55.1248 42.854 55.09 41.8424 55.3705 40.3397L53.4045 39.9728ZM56.4873 46.2806C58.2953 45.6056 60.3705 43.8473 62.6977 41.2265L61.2023 39.8985C58.9046 42.486 57.1047 43.9152 55.7878 44.4069L56.4873 46.2806ZM62.6168 41.3077C62.6568 41.2719 62.6806 41.2594 62.6862 41.2566C62.6902 41.2547 62.6816 41.2592 62.6643 41.2609C62.647 41.2626 62.638 41.2598 62.6428 41.2611C62.6494 41.2628 62.6757 41.2707 62.7225 41.2984L63.74 39.5766C63.3728 39.3596 62.941 39.2244 62.4701 39.2704C61.9989 39.3163 61.6013 39.5326 61.2832 39.8173L62.6168 41.3077ZM62.7072 41.2892L63.9259 42.0392L64.9741 40.3358L63.7554 39.5858L62.7072 41.2892ZM63.8361 41.9769C64.0319 42.1292 64.0779 42.2232 64.084 42.2386C64.0857 42.2427 64.0828 42.2361 64.0828 42.2246C64.0828 42.2141 64.0853 42.2184 64.0762 42.2426L65.9488 42.9449C66.1246 42.4762 66.133 41.9758 65.941 41.4958C65.7597 41.0425 65.4306 40.6833 65.0639 40.3981L63.8361 41.9769ZM64.1278 42.1275C63.4078 43.4938 62.0286 45.0269 59.8924 46.7155L61.1326 48.2845C63.3714 46.5148 64.9922 44.777 65.8972 43.06L64.1278 42.1275ZM59.8924 46.7155C58.8402 47.5472 57.9323 48.1069 57.1642 48.4296C56.3939 48.7533 55.8263 48.8129 55.4155 48.7359L55.047 50.7016C55.9696 50.8746 56.9488 50.6894 57.9389 50.2735C58.9313 49.8566 59.9973 49.1819 61.1326 48.2845L59.8924 46.7155ZM55.4785 48.7498C52.706 48.0423 51.3133 46.676 50.8959 44.7563L48.9416 45.1812C49.5659 48.0531 51.7148 49.8535 54.984 50.6877L55.4785 48.7498ZM50.9015 44.7837C50.3417 41.811 50.8192 37.5895 52.471 32.0351L50.554 31.4649C48.8725 37.1189 48.2875 41.7098 48.936 45.1538L50.9015 44.7837ZM52.471 32.0351C54.1077 26.5317 56.3608 22.4789 59.1731 19.7846L57.7895 18.3404C54.6434 21.3544 52.2506 25.76 50.554 31.4649L52.471 32.0351ZM59.1583 19.7984C60.0735 18.9564 61.2255 18.3169 62.6412 17.896L62.0713 15.979C60.4037 16.4747 58.9723 17.2519 57.8042 18.3266L59.1583 19.7984ZM62.6494 17.8936C63.9549 17.4932 65.3583 17.5816 66.9052 18.2339L67.6823 16.3911C65.7709 15.585 63.8826 15.4234 62.0631 15.9814L62.6494 17.8936ZM66.9052 18.2339C68.0187 18.7035 68.8768 20.1697 68.8563 23.5564L70.8562 23.5686C70.8774 20.0803 70.0271 17.3799 67.6823 16.3911L66.9052 18.2339ZM68.8563 23.5564C68.8374 26.674 67.4762 29.6874 64.6106 32.6127L66.0394 34.0123C69.1738 30.8126 70.8335 27.326 70.8562 23.5686L68.8563 23.5564ZM64.6106 32.6128C61.7462 35.5372 58.2341 37.7394 54.0549 39.2132L54.7201 41.0993C59.1659 39.5315 62.9454 37.1711 66.0394 34.0122L64.6106 32.6128ZM55.5615 36.9196C57.6305 36.036 59.4219 34.9913 60.9226 33.7775L59.6649 32.2225C58.3323 33.3003 56.707 34.2557 54.776 35.0804L55.5615 36.9196ZM60.9171 33.782C62.459 32.5529 63.7202 31.0559 64.6986 29.2991L62.9514 28.3259C62.0965 29.8608 61.0035 31.1554 59.6704 32.218L60.9171 33.782ZM64.6939 29.3075C65.7089 27.5256 66.2313 25.669 66.2313 23.75H64.2313C64.2313 25.2894 63.8161 26.8077 62.9561 28.3175L64.6939 29.3075ZM66.2313 23.75C66.2313 22.8218 66.1028 21.9627 65.7219 21.3041C65.2929 20.5622 64.5877 20.1562 63.7313 20.1562V22.1562C63.8335 22.1562 63.8747 22.177 63.8881 22.1847C63.9015 22.1924 63.9398 22.2175 63.9906 22.3053C64.1097 22.5112 64.2313 22.949 64.2313 23.75H66.2313ZM63.7313 20.1562C61.1376 20.1562 59.1727 22.2838 57.6669 25.5501L59.4831 26.3874C60.9356 23.237 62.4083 22.1562 63.7313 22.1562V20.1562ZM57.6657 25.5527C56.1787 28.8027 55.0219 32.2102 54.1947 35.7739L56.1429 36.2261C56.9406 32.7898 58.0546 29.5098 59.4844 26.3848L57.6657 25.5527ZM91.7125 17.7812L91.2 18.64L92.4581 19.3907L92.6989 17.9456L91.7125 17.7812ZM93.1813 16.2812V17.2812H93.2025L93.2238 17.2803L93.1813 16.2812ZM94.65 16.2188L94.6767 15.2191L94.6421 15.2182L94.6075 15.2197L94.65 16.2188ZM96.3688 18.5312L97.3265 18.8189L97.3295 18.8089L97.3323 18.7989L96.3688 18.5312ZM88.6813 44.125L87.7235 43.8373L86.8635 46.7006L89.2732 44.931L88.6813 44.125ZM92.65 39.9062L93.4632 40.4884L93.4704 40.478L92.65 39.9062ZM94.2438 39.4688L93.6822 40.2963L93.6929 40.3034L94.2438 39.4688ZM95.8063 40.5L96.3728 39.676L96.365 39.6706L96.3571 39.6654L95.8063 40.5ZM96.1188 42.0938L96.878 42.7445L96.8974 42.7219L96.9154 42.6981L96.1188 42.0938ZM91.275 46.875L91.8858 47.6668L91.8874 47.6655L91.275 46.875ZM86.0563 49.25L86.1977 50.2399L86.2379 50.2342L86.2774 50.2252L86.0563 49.25ZM84.9 48.5625L83.9521 48.8813L83.955 48.8896L84.9 48.5625ZM83.7125 45.0312L84.6603 44.7125L84.0601 42.9275L82.9176 44.4246L83.7125 45.0312ZM80.6188 48.3125L81.1827 49.1383L81.1895 49.1337L81.1962 49.1289L80.6188 48.3125ZM76.9313 48.4688L76.3431 49.2775L76.3568 49.2875L76.3709 49.297L76.9313 48.4688ZM73.3688 43.9375L72.4139 44.2346L72.4169 44.2442L72.4201 44.2537L73.3688 43.9375ZM73.4313 38.8438L72.4413 38.7023L72.4403 38.7094L73.4313 38.8438ZM76.3688 28.4688L75.4283 28.1288L76.3688 28.4688ZM87.65 16.625L87.6336 17.6249L87.6418 17.625H87.65V16.625ZM90.7438 21.3438L91.7061 21.6156L91.9206 20.8564L91.2321 20.4711L90.7438 21.3438ZM85.1813 21.2812L85.8302 22.0421L85.8311 22.0413L85.1813 21.2812ZM80.9938 28.7188L80.0549 28.3745L80.0532 28.3791L80.9938 28.7188ZM78.3375 37.5625L77.3558 37.3719L77.3544 37.3794L78.3375 37.5625ZM82.3688 41.5L81.6316 40.8243L81.6272 40.8291L82.3688 41.5ZM86.5563 34.3125L85.6269 33.9433L85.6247 33.9488L86.5563 34.3125ZM92.6989 17.9456C92.763 17.5611 92.8689 17.4073 92.9192 17.3559C92.9454 17.3291 92.9969 17.2812 93.1813 17.2812V15.2812C92.5531 15.2812 91.9536 15.4834 91.4902 15.9566C91.0509 16.4052 90.8287 17.0014 90.7261 17.6169L92.6989 17.9456ZM93.2238 17.2803L94.6925 17.2178L94.6075 15.2197L93.1387 15.2822L93.2238 17.2803ZM94.6233 17.2184C95.289 17.2361 95.4354 17.4064 95.449 17.4246C95.4613 17.4413 95.5821 17.6269 95.4052 18.2636L97.3323 18.7989C97.5721 17.9356 97.6147 16.9858 97.0542 16.2316C96.4948 15.479 95.5735 15.243 94.6767 15.2191L94.6233 17.2184ZM95.411 18.2436L87.7235 43.8373L89.639 44.4127L97.3265 18.8189L95.411 18.2436ZM89.2732 44.931C90.7162 43.8713 92.1099 42.3786 93.4631 40.4884L91.8369 39.3241C90.5651 41.1006 89.313 42.4204 88.0893 43.319L89.2732 44.931ZM93.4704 40.478C93.5519 40.3611 93.6157 40.2964 93.6554 40.2637C93.6931 40.2326 93.699 40.2383 93.6725 40.2456C93.6416 40.2541 93.6115 40.2524 93.5972 40.2492C93.589 40.2474 93.6168 40.2518 93.6823 40.2962L94.8053 38.6413C94.3443 38.3285 93.7659 38.1459 93.1431 38.3169C92.5606 38.4768 92.1361 38.8946 91.8296 39.3345L93.4704 40.478ZM93.6929 40.3034L95.2554 41.3346L96.3571 39.6654L94.7946 38.6341L93.6929 40.3034ZM95.2397 41.324C95.3451 41.3965 95.3937 41.4486 95.4119 41.4719C95.4272 41.4916 95.4116 41.4783 95.4031 41.4346C95.3991 41.4144 95.3982 41.395 95.3993 41.3786C95.4003 41.3627 95.4029 41.3548 95.4024 41.3565C95.4006 41.3622 95.385 41.4064 95.3221 41.4894L96.9154 42.6981C97.2455 42.263 97.4919 41.6932 97.3657 41.0498C97.2431 40.4248 96.8165 39.981 96.3728 39.676L95.2397 41.324ZM95.3595 41.443C93.6362 43.4534 92.0706 44.9938 90.6626 46.0845L91.8874 47.6655C93.4378 46.4646 95.1013 44.8174 96.878 42.7445L95.3595 41.443ZM90.6642 46.0832C89.3345 47.109 87.732 47.8445 85.8351 48.2748L86.2774 50.2252C88.4221 49.7388 90.2989 48.891 91.8858 47.6668L90.6642 46.0832ZM85.9148 48.2601C85.8464 48.2698 85.8124 48.2662 85.8047 48.265C85.7997 48.2643 85.816 48.2664 85.8408 48.2811C85.8521 48.2878 85.8618 48.2953 85.8694 48.3022C85.873 48.3055 85.8757 48.3083 85.8776 48.3104C85.8795 48.3125 85.8803 48.3137 85.8803 48.3136C85.8801 48.3134 85.8647 48.2924 85.845 48.2354L83.955 48.8896C84.104 49.3201 84.3718 49.7345 84.8186 50.0002C85.2617 50.2636 85.7515 50.3037 86.1977 50.2399L85.9148 48.2601ZM85.8478 48.2438L84.6603 44.7125L82.7647 45.35L83.9522 48.8812L85.8478 48.2438ZM82.9176 44.4246C81.7257 45.9862 80.7686 46.9817 80.0413 47.4961L81.1962 49.1289C82.1773 48.435 83.2826 47.2429 84.5075 45.6379L82.9176 44.4246ZM80.0548 47.4867C79.6578 47.7578 79.3346 47.9417 79.0798 48.0549C78.8148 48.1727 78.6825 48.1875 78.65 48.1875V50.1875C79.0759 50.1875 79.5008 50.0564 79.8921 49.8826C80.2936 49.7041 80.7255 49.4505 81.1827 49.1383L80.0548 47.4867ZM78.65 48.1875H78.525V50.1875H78.65V48.1875ZM78.525 48.1875C78.5524 48.1875 78.4815 48.1907 78.272 48.0962C78.0764 48.008 77.8182 47.8614 77.4916 47.6405L76.3709 49.297C76.7527 49.5553 77.1142 49.7681 77.4498 49.9194C77.7716 50.0645 78.1434 50.1875 78.525 50.1875V48.1875ZM77.5194 47.66C76.9054 47.2135 76.2727 46.6228 75.6238 45.8756L74.1137 47.1869C74.8398 48.0231 75.5821 48.724 76.3431 49.2775L77.5194 47.66ZM75.6238 45.8756C75.0172 45.1771 74.5858 44.4265 74.3174 43.6213L72.4201 44.2537C72.7767 45.3235 73.3453 46.3021 74.1137 47.1869L75.6238 45.8756ZM74.3236 43.6404C74.2236 43.319 74.1556 42.782 74.1656 41.9732C74.1753 41.179 74.2588 40.1834 74.4222 38.9781L72.4403 38.7094C72.2704 39.9624 72.1768 41.045 72.1657 41.9487C72.1548 42.8378 72.2222 43.6185 72.4139 44.2346L74.3236 43.6404ZM74.4212 38.9852C74.7606 36.6091 75.7117 33.2277 77.3092 28.8087L75.4283 28.1288C73.8175 32.5848 72.8102 36.1201 72.4413 38.7023L74.4212 38.9852ZM77.3092 28.8087C78.9021 24.4022 80.4904 21.4743 82.0261 19.8816L80.5864 18.4934C78.7472 20.4007 77.0437 23.6603 75.4283 28.1288L77.3092 28.8087ZM82.0261 19.8816C83.5115 18.3412 85.3549 17.5875 87.6336 17.6249L87.6664 15.6251C84.8618 15.5792 82.476 16.5338 80.5864 18.4934L82.0261 19.8816ZM87.65 17.625C88.875 17.625 90.0534 17.9557 91.2 18.64L92.225 16.9225C90.7883 16.0652 89.2584 15.625 87.65 15.625V17.625ZM91.2321 20.4711C90.0064 19.7852 88.8094 19.388 87.6612 19.3751C86.4867 19.3619 85.4301 19.7527 84.5314 20.5212L85.8311 22.0413C86.3699 21.5806 86.9591 21.3673 87.6388 21.3749C88.3448 21.3829 89.2103 21.6315 90.2554 22.2164L91.2321 20.4711ZM84.5323 20.5204C82.9032 21.91 81.4358 24.6084 80.0549 28.3745L81.9326 29.063C83.3017 25.3291 84.626 23.0692 85.8302 22.0421L84.5323 20.5204ZM80.0532 28.3791C78.6933 32.1451 77.7873 35.15 77.3558 37.3719L79.3192 37.7531C79.7211 35.6833 80.5859 32.7924 81.9343 29.0584L80.0532 28.3791ZM77.3544 37.3794C76.9615 39.4885 76.7659 41.0636 76.8408 41.9871L78.8342 41.8254C78.7841 41.2072 78.9218 39.8865 79.3206 37.7456L77.3544 37.3794ZM76.8408 41.9871C76.9312 43.1023 77.5099 43.9703 78.5045 44.4827L79.4205 42.7048C79.0401 42.5088 78.8688 42.2519 78.8342 41.8254L76.8408 41.9871ZM78.5045 44.4827C79.3344 44.9102 80.2061 44.5857 80.8534 44.1879C81.5412 43.7651 82.2959 43.071 83.1103 42.1709L81.6272 40.8291C80.8583 41.679 80.2536 42.2089 79.806 42.484C79.3178 42.7841 79.2781 42.6315 79.4205 42.7048L78.5045 44.4827ZM83.1059 42.1757C84.8185 40.3074 86.2711 37.7927 87.4878 34.6762L85.6247 33.9488C84.4665 36.9156 83.1273 39.1926 81.6316 40.8243L83.1059 42.1757ZM87.4856 34.6817C88.7127 31.5928 90.1194 27.2317 91.7061 21.6156L89.7814 21.0719C88.2014 26.6642 86.8165 30.9489 85.6269 33.9433L87.4856 34.6817ZM110.819 25.0625L109.85 24.815L111.671 25.5853L110.819 25.0625ZM114.569 19.5625L113.788 18.9378L113.782 18.9447L114.569 19.5625ZM117.1 16.8438L117.662 17.6707L117.669 17.6659L117.1 16.8438ZM121.819 17.7188L122.742 18.1034L122.743 18.1005L121.819 17.7188ZM116.85 23.4375L116.066 22.8161L116.062 22.8217L116.85 23.4375ZM116.319 30.125L115.641 30.8604L115.659 30.8773L115.679 30.8932L116.319 30.125ZM116.538 30.8125L117.448 31.2263L117.454 31.2118L117.461 31.1971L116.538 30.8125ZM115.881 31.2812L116.058 32.2655L116.091 32.2596L116.124 32.2514L115.881 31.2812ZM113.444 31.7188L113.267 30.7345L113.265 30.7349L113.444 31.7188ZM111.85 31.5L111.243 32.2944L111.253 32.3027L111.265 32.3107L111.85 31.5ZM109.975 28.5938L110.856 28.1203L109.646 25.8691L109.007 28.3437L109.975 28.5938ZM105.069 47.5938L106.029 47.8713L106.033 47.8576L106.037 47.8438L105.069 47.5938ZM99.8813 47.5312L100.845 47.7979L100.848 47.7852L99.8813 47.5312ZM107.694 17.7812L108.661 18.0352L108.663 18.0267L108.665 18.0182L107.694 17.7812ZM112.663 17.8438L113.631 18.0912L113.633 18.0842L113.635 18.0771L112.663 17.8438ZM111.671 25.5853C113.012 23.398 114.24 21.599 115.355 20.1803L113.782 18.9447C112.605 20.4426 111.333 22.3103 109.966 24.5397L111.671 25.5853ZM115.35 20.1872C116.532 18.7091 117.286 17.9263 117.662 17.6707L116.538 16.0168C115.872 16.4696 114.939 17.4993 113.788 18.9378L115.35 20.1872ZM117.669 17.6659C117.943 17.4762 118.611 17.2812 119.913 17.2812V15.2812C118.547 15.2812 117.34 15.4613 116.531 16.0216L117.669 17.6659ZM119.913 17.2812H120.538V15.2812H119.913V17.2812ZM120.538 17.2812C120.794 17.2812 120.955 17.3066 121.046 17.3326C121.137 17.3586 121.106 17.3698 121.049 17.306C121.019 17.2731 120.995 17.2325 120.979 17.1894C120.964 17.148 120.962 17.1189 120.962 17.1116C120.961 17.106 120.962 17.1731 120.894 17.337L122.743 18.1005C122.989 17.5041 123.145 16.6523 122.542 15.9753C122.022 15.3921 121.206 15.2812 120.538 15.2812V17.2812ZM120.896 17.3341C120.778 17.6156 120.404 18.1157 119.587 18.8505L120.925 20.337C121.775 19.5718 122.442 18.8219 122.742 18.1034L120.896 17.3341ZM119.587 18.8505C118.689 19.6594 117.51 20.9957 116.067 22.8161L117.634 24.0589C119.065 22.2543 120.157 21.0281 120.925 20.337L119.587 18.8505ZM116.062 22.8217C115.343 23.7417 114.784 24.5254 114.399 25.1641C114.207 25.4831 114.048 25.7847 113.933 26.0623C113.825 26.3239 113.725 26.6411 113.725 26.9688H115.725C115.725 27.0256 115.713 26.9925 115.782 26.8244C115.845 26.6723 115.951 26.4648 116.113 26.1953C116.437 25.6569 116.94 24.9458 117.638 24.0533L116.062 22.8217ZM113.725 26.9688C113.725 28.4475 114.435 29.7489 115.641 30.8604L116.996 29.3896C116.077 28.5427 115.725 27.74 115.725 26.9688H113.725ZM115.679 30.8932C115.707 30.9172 115.646 30.877 115.608 30.7563C115.588 30.6949 115.58 30.6286 115.585 30.5638C115.589 30.5007 115.603 30.4542 115.614 30.4279L117.461 31.1971C117.591 30.883 117.631 30.5186 117.514 30.1499C117.403 29.8001 117.18 29.5411 116.959 29.3568L115.679 30.8932ZM115.627 30.3987C115.638 30.3738 115.654 30.3497 115.671 30.3285C115.689 30.3076 115.705 30.2945 115.714 30.2878C115.731 30.2759 115.716 30.2918 115.639 30.3111L116.124 32.2514C116.638 32.1228 117.176 31.8254 117.448 31.2263L115.627 30.3987ZM115.705 30.297L113.267 30.7345L113.62 32.703L116.058 32.2655L115.705 30.297ZM113.265 30.7349C112.71 30.8358 112.499 30.735 112.435 30.6893L111.265 32.3107C111.951 32.8066 112.803 32.8517 113.623 32.7026L113.265 30.7349ZM112.457 30.7056C112.467 30.713 112.422 30.6777 112.318 30.5462C112.222 30.4247 112.102 30.2546 111.956 30.0282C111.664 29.5757 111.298 28.943 110.856 28.1203L109.094 29.0672C109.548 29.9112 109.942 30.5962 110.275 31.1124C110.582 31.587 110.91 32.0397 111.243 32.2944L112.457 30.7056ZM109.007 28.3437L104.101 47.3437L106.037 47.8438L110.943 28.8438L109.007 28.3437ZM104.108 47.3162C104.02 47.62 103.899 47.7626 103.794 47.8391C103.684 47.9188 103.49 48 103.131 48V50C103.794 50 104.433 49.8468 104.969 49.4577C105.509 49.0655 105.846 48.505 106.029 47.8713L104.108 47.3162ZM103.131 48H101.288V50H103.131V48ZM101.288 48C101.047 48 100.891 47.9749 100.8 47.9483C100.711 47.9223 100.718 47.9054 100.752 47.9412C100.769 47.9591 100.785 47.9817 100.796 48.0055C100.806 48.0285 100.808 48.0424 100.808 48.0403C100.807 48.0303 100.801 47.9577 100.845 47.7978L98.9174 47.2647C98.7388 47.9107 98.7217 48.7126 99.3074 49.3244C99.8332 49.8736 100.608 50 101.288 50V48ZM100.848 47.7852L108.661 18.0352L106.727 17.5273L98.9141 47.2773L100.848 47.7852ZM108.665 18.0182C108.725 17.7739 108.813 17.6795 108.879 17.6321C108.957 17.5763 109.125 17.5 109.475 17.5V15.5C108.846 15.5 108.228 15.6372 107.711 16.0085C107.184 16.3882 106.871 16.9345 106.722 17.5443L108.665 18.0182ZM109.475 17.5H111.444V15.5H109.475V17.5ZM111.444 17.5C111.677 17.5 111.823 17.5202 111.904 17.5405C111.992 17.5623 111.942 17.5685 111.862 17.4884L113.276 16.0741C113.008 15.8065 112.677 15.6721 112.389 15.6002C112.096 15.5267 111.773 15.5 111.444 15.5V17.5ZM111.862 17.4884C111.74 17.3669 111.735 17.2521 111.737 17.2754C111.738 17.2861 111.739 17.3185 111.733 17.3778C111.726 17.4365 111.713 17.5133 111.69 17.6104L113.635 18.0771C113.711 17.7593 113.758 17.4242 113.729 17.0996C113.7 16.7687 113.585 16.3831 113.276 16.0741L111.862 17.4884ZM111.694 17.5963L109.85 24.815L111.788 25.31L113.631 18.0912L111.694 17.5963ZM143.05 26.4375L142.257 27.0472L142.272 27.0657L142.287 27.0834L143.05 26.4375ZM143.269 27.5L144.246 27.7108L144.249 27.699L144.251 27.6871L143.269 27.5ZM142.925 29.0938L141.947 28.8829L141.944 28.8968L141.942 28.9108L142.925 29.0938ZM124.769 28.9688L125.733 29.2353L125.736 29.2234L125.739 29.2113L124.769 28.9688ZM125.331 26.7188L124.366 26.4556L124.364 26.4659L124.361 26.4762L125.331 26.7188ZM126.175 27.0312H142.175V25.0312H126.175V27.0312ZM142.175 27.0312C142.241 27.0312 142.26 27.0427 142.254 27.0398C142.252 27.0388 142.249 27.0371 142.248 27.0359C142.246 27.0348 142.25 27.0374 142.257 27.0472L143.843 25.8278C143.425 25.2845 142.826 25.0312 142.175 25.0312V27.0312ZM142.287 27.0834C142.291 27.0886 142.294 27.0914 142.297 27.1079C142.302 27.1309 142.309 27.1938 142.286 27.3129L144.251 27.6871C144.375 27.0358 144.286 26.3502 143.813 25.7916L142.287 27.0834ZM142.291 27.2892L141.947 28.8829L143.903 29.3046L144.246 27.7108L142.291 27.2892ZM141.942 28.9108C141.889 29.1925 141.8 29.2888 141.756 29.325C141.708 29.364 141.582 29.4375 141.269 29.4375V31.4375C141.893 31.4375 142.512 31.287 143.016 30.8781C143.523 30.4664 143.794 29.8908 143.908 29.2767L141.942 28.9108ZM141.269 29.4375H125.925V31.4375H141.269V29.4375ZM125.925 29.4375C125.736 29.4375 125.634 29.4144 125.591 29.3998C125.556 29.3878 125.595 29.3937 125.64 29.4518C125.687 29.5113 125.687 29.5566 125.686 29.5336C125.683 29.5006 125.685 29.4076 125.733 29.2353L123.805 28.7022C123.638 29.3043 123.582 30.0697 124.069 30.6889C124.548 31.2979 125.3 31.4375 125.925 31.4375V29.4375ZM125.739 29.2113L126.301 26.9613L124.361 26.4762L123.799 28.7262L125.739 29.2113ZM126.296 26.9819C126.321 26.8921 126.332 26.9257 126.268 26.9784C126.237 27.0034 126.205 27.0191 126.18 27.027C126.157 27.0342 126.153 27.0312 126.175 27.0312V25.0312C125.775 25.0312 125.358 25.1396 125.004 25.4279C124.658 25.7097 124.467 26.0871 124.366 26.4556L126.296 26.9819ZM177.531 13.875L176.534 13.9444L176.536 13.9805L176.541 14.0164L177.531 13.875ZM176.25 15.9688L175.981 15.0056L175.973 15.0079L175.964 15.0105L176.25 15.9688ZM174.469 16.5L174.64 17.4852L174.698 17.4751L174.755 17.4583L174.469 16.5ZM173.094 16.125L172.446 16.8869L172.466 16.9042L172.488 16.9204L173.094 16.125ZM172.406 14.75L173.404 14.6761L173.402 14.6624L173.401 14.6486L172.406 14.75ZM170.25 7.78125L171.03 7.15512L170.857 6.93953L170.597 6.8435L170.25 7.78125ZM168.375 7.46875L168.335 8.46795L168.355 8.46875H168.375V7.46875ZM162.062 11.9062L161.243 11.3335L161.242 11.3347L162.062 11.9062ZM156.562 24.8125L155.599 24.543L155.599 24.5463L156.562 24.8125ZM155.031 38.7188L154.041 38.8586L154.042 38.8641L155.031 38.7188ZM158.281 44.8438L158.045 45.8153L158.206 45.8548L158.372 45.8396L158.281 44.8438ZM166.219 37.4688L167.129 37.8829L167.134 37.8707L166.219 37.4688ZM167.219 35.9375L166.748 35.0551L166.735 35.062L166.723 35.0693L167.219 35.9375ZM168.781 36.125L169.165 35.2014L169.153 35.1965L168.781 36.125ZM170.812 36.9688L171.209 36.0509L171.203 36.048L171.196 36.0453L170.812 36.9688ZM171 39.5312L171.88 40.0066L171.893 39.9818L171.905 39.9564L171 39.5312ZM165.188 47.25L165.804 48.0375L165.809 48.0334L165.188 47.25ZM158.094 49.5V48.5H158.066L158.038 48.5015L158.094 49.5ZM153.156 47.5312L152.536 48.3157L152.542 48.3201L153.156 47.5312ZM149.844 38.6562L148.848 38.7439L148.848 38.7484L149.844 38.6562ZM151.406 23.0938L150.436 22.8536L150.435 22.8561L151.406 23.0938ZM158.656 8.25L159.421 8.89487L159.422 8.89291L158.656 8.25ZM169.406 2.15625V1.15619L169.395 1.15631L169.406 2.15625ZM171.531 2.625L171.202 3.5692L171.212 3.57264L171.222 3.57587L171.531 2.625ZM173.969 3.90625L173.358 4.69803L173.37 4.70768L173.383 4.71693L173.969 3.90625ZM176.541 14.0164C176.577 14.2693 176.594 14.4923 176.594 14.6875H178.594C178.594 14.3827 178.568 14.0641 178.521 13.7336L176.541 14.0164ZM176.594 14.6875C176.594 14.7119 176.59 14.715 176.593 14.709C176.595 14.7036 176.593 14.7133 176.568 14.7372C176.507 14.7948 176.344 14.9043 175.981 15.0056L176.519 16.9319C177.052 16.7832 177.56 16.5541 177.948 16.1847C178.364 15.7876 178.594 15.2705 178.594 14.6875H176.594ZM175.964 15.0105L174.183 15.5417L174.755 17.4583L176.536 16.927L175.964 15.0105ZM174.297 15.5148C174.13 15.5439 173.948 15.5186 173.7 15.3296L172.488 16.9204C173.115 17.3981 173.849 17.6227 174.64 17.4852L174.297 15.5148ZM173.741 15.3631C173.536 15.1882 173.426 14.9811 173.404 14.6761L171.409 14.8239C171.47 15.6439 171.818 16.3534 172.446 16.8869L173.741 15.3631ZM173.401 14.6486C173.063 11.3272 172.32 8.76245 171.03 7.15512L169.47 8.40738C170.388 9.55005 171.083 11.6311 171.411 14.8514L173.401 14.6486ZM170.597 6.8435C169.909 6.58845 169.164 6.46875 168.375 6.46875V8.46875C168.961 8.46875 169.466 8.55738 169.903 8.719L170.597 6.8435ZM168.415 6.46955C165.793 6.36467 163.413 8.22773 161.243 11.3335L162.882 12.479C164.962 9.50144 166.79 8.40616 168.335 8.46795L168.415 6.46955ZM161.242 11.3347C159.048 14.4848 157.177 18.9064 155.599 24.543L157.526 25.082C159.073 19.5519 160.869 15.3694 162.883 12.4778L161.242 11.3347ZM155.599 24.5463C154.039 30.1961 153.493 34.9812 154.041 38.8586L156.021 38.5789C155.527 35.0813 156.003 30.5955 157.526 25.0787L155.599 24.5463ZM154.042 38.8641C154.32 40.7604 154.749 42.3199 155.367 43.4843C155.989 44.6573 156.861 45.527 158.045 45.8153L158.518 43.8722C158.077 43.7647 157.594 43.4156 157.133 42.5469C156.668 41.6697 156.284 40.3646 156.021 38.5734L154.042 38.8641ZM158.372 45.8396C162.096 45.4989 164.969 42.6305 167.129 37.8829L165.309 37.0546C163.26 41.557 160.842 43.6053 158.19 43.8479L158.372 45.8396ZM167.134 37.8707C167.31 37.4706 167.462 37.1839 167.587 36.9921C167.727 36.7781 167.778 36.7699 167.715 36.8057L166.723 35.0693C166.368 35.2717 166.106 35.6021 165.913 35.8985C165.705 36.2171 165.502 36.6128 165.303 37.0668L167.134 37.8707ZM167.689 36.8199C167.597 36.869 167.575 36.8343 167.725 36.8523C167.867 36.8693 168.09 36.9257 168.41 37.0535L169.153 35.1965C168.743 35.0327 168.341 34.9119 167.963 34.8665C167.592 34.822 167.153 34.8393 166.748 35.0551L167.689 36.8199ZM168.398 37.0485L170.429 37.8922L171.196 36.0453L169.165 35.2015L168.398 37.0485ZM170.416 37.8866C170.466 37.9084 170.457 37.9162 170.439 37.8908C170.422 37.8665 170.435 37.8662 170.44 37.9324C170.453 38.1021 170.393 38.4705 170.095 39.1061L171.905 39.9564C172.252 39.217 172.485 38.4709 172.435 37.7864C172.408 37.4255 172.302 37.0632 172.076 36.742C171.85 36.4197 171.544 36.1958 171.209 36.0509L170.416 37.8866ZM170.12 39.0559C168.188 42.6323 166.328 45.0685 164.566 46.4666L165.809 48.0334C167.88 46.3898 169.895 43.6802 171.88 40.0066L170.12 39.0559ZM164.571 46.4625C162.857 47.804 160.719 48.5 158.094 48.5V50.5C161.093 50.5 163.685 49.696 165.804 48.0375L164.571 46.4625ZM158.038 48.5015C156.877 48.5661 155.466 48.0631 153.771 46.7424L152.542 48.3201C154.43 49.7911 156.311 50.6006 158.149 50.4985L158.038 48.5015ZM153.776 46.7468C152.332 45.6047 151.253 43.0258 150.839 38.5641L148.848 38.7484C149.268 43.2867 150.397 46.6245 152.536 48.3157L153.776 46.7468ZM150.84 38.5686C150.456 34.2076 150.958 29.1338 152.378 23.3314L150.435 22.8561C148.98 28.8037 148.44 34.1049 148.848 38.7439L150.84 38.5686ZM152.377 23.3339C153.804 17.5631 156.159 12.7601 159.421 8.89487L157.892 7.60513C154.403 11.7399 151.925 16.8327 150.436 22.8536L152.377 23.3339ZM159.422 8.89291C162.685 5.00578 166.017 3.19356 169.417 3.15619L169.395 1.15631C165.212 1.20228 161.378 3.45256 157.89 7.60709L159.422 8.89291ZM169.406 3.15625C169.758 3.15625 170.34 3.2685 171.202 3.5692L171.861 1.6808C170.931 1.3565 170.096 1.15625 169.406 1.15625V3.15625ZM171.222 3.57587C172.011 3.83295 172.721 4.20702 173.358 4.69803L174.58 3.11447C173.758 2.48048 172.843 2.00038 171.841 1.67413L171.222 3.57587ZM173.383 4.71693C173.88 5.07551 174.534 6.02692 175.257 7.86598L177.118 7.13402C176.383 5.26475 175.558 3.82033 174.554 3.09557L173.383 4.71693ZM175.257 7.86598C175.942 9.60813 176.373 11.6301 176.534 13.9444L178.529 13.8056C178.357 11.3282 177.891 9.1002 177.118 7.13402L175.257 7.86598ZM179.512 39.7188L180.512 39.7528L180.512 39.7516L179.512 39.7188ZM193.981 15.9688L194.039 14.9704L194.02 14.9693L194.001 14.969L193.981 15.9688ZM198.981 19.1875L198.119 19.6941L198.129 19.7111L198.14 19.7276L198.981 19.1875ZM200.075 26.2812L199.076 26.2313L199.076 26.2431L199.075 26.2549L200.075 26.2812ZM194.887 43.8125L194.035 43.2902L194.028 43.3015L194.021 43.3129L194.887 43.8125ZM185.731 49.5L185.769 48.5007L185.762 48.5005L185.731 49.5ZM181.95 47.7188L182.651 47.0053L182.645 46.9999L182.64 46.9946L181.95 47.7188ZM190.419 42.2812L191.251 42.836L191.257 42.8266L191.263 42.8171L190.419 42.2812ZM195.012 26.9688L196.012 26.9983L196.012 26.9854L195.012 26.9688ZM194.606 21.9375L193.66 22.2606L193.663 22.2709L193.667 22.2811L194.606 21.9375ZM187.794 25.7812L188.688 26.2285L188.695 26.2145L188.702 26.2003L187.794 25.7812ZM184.7 39.0938L183.7 39.061L183.7 39.072L184.7 39.0938ZM186.7 45.0312L186.612 46.0274L186.639 46.0298L186.666 46.0307L186.7 45.0312ZM180.512 39.7516C180.694 34.1946 182.082 28.9353 184.68 23.9631L182.907 23.0369C180.172 28.2731 178.706 33.8262 178.513 39.6859L180.512 39.7516ZM184.68 23.9631C187.251 19.0421 190.362 16.8958 193.961 16.9685L194.001 14.969C189.35 14.875 185.67 17.7495 182.907 23.0369L184.68 23.9631ZM193.923 16.9671C195.702 17.0707 197.083 17.9303 198.119 19.6941L199.843 18.6809C198.505 16.403 196.553 15.1168 194.039 14.9704L193.923 16.9671ZM198.14 19.7276C198.855 20.8429 199.241 22.9313 199.076 26.2313L201.074 26.3312C201.242 22.9645 200.899 20.3238 199.823 18.6474L198.14 19.7276ZM199.075 26.2549C198.913 32.3924 197.235 38.0651 194.035 43.2902L195.74 44.3348C199.124 38.8099 200.903 32.7951 201.075 26.3076L199.075 26.2549ZM194.021 43.3129C191.894 47.0007 189.156 48.6296 185.769 48.5007L185.693 50.4993C189.973 50.6621 193.339 48.4993 195.754 44.3121L194.021 43.3129ZM185.762 48.5005C184.709 48.4681 183.677 48.0134 182.651 47.0053L181.249 48.4322C182.556 49.7157 184.045 50.4486 185.7 50.4995L185.762 48.5005ZM182.64 46.9946C181.184 45.6081 180.392 43.2822 180.512 39.7528L178.513 39.6847C178.383 43.4886 179.216 46.4961 181.26 48.4429L182.64 46.9946ZM191.263 42.8171C194.26 38.0958 195.84 32.8153 196.012 26.9983L194.013 26.9392C193.851 32.4139 192.37 37.3417 189.574 41.7454L191.263 42.8171ZM196.012 26.9854C196.033 25.7169 196.01 24.6377 195.939 23.7555C195.869 22.8894 195.749 22.1492 195.545 21.5939L193.667 22.2811C193.776 22.5799 193.88 23.1054 193.945 23.9164C194.01 24.7112 194.033 25.7206 194.013 26.9521L196.012 26.9854ZM195.553 21.6144C195.351 21.0244 195.009 20.511 194.492 20.1495C193.981 19.7914 193.379 19.6388 192.753 19.6252L192.71 21.6248C193.042 21.632 193.232 21.7086 193.345 21.788C193.454 21.864 193.57 21.9964 193.66 22.2606L195.553 21.6144ZM192.753 19.6252C191.421 19.5963 190.28 20.2374 189.349 21.3151L190.863 22.6224C191.516 21.8668 192.125 21.6121 192.71 21.6248L192.753 19.6252ZM189.349 21.3151C188.475 22.3275 187.658 23.6887 186.886 25.3622L188.702 26.2003C189.429 24.6238 190.154 23.4433 190.863 22.6224L189.349 21.3151ZM186.899 25.334C184.927 29.2778 183.871 33.8619 183.701 39.061L185.699 39.1265C185.862 34.159 186.868 29.868 188.688 26.2285L186.899 25.334ZM183.7 39.072C183.658 41.0245 183.801 42.6166 184.19 43.7723C184.581 44.9349 185.331 45.9144 186.612 46.0274L186.788 44.0351C186.652 44.0231 186.36 43.9506 186.085 43.1339C185.808 42.3105 185.659 40.9964 185.7 39.1155L183.7 39.072ZM186.666 46.0307C188.452 46.0912 189.965 44.764 191.251 42.836L189.587 41.7265C188.372 43.5485 187.406 44.0546 186.734 44.0318L186.666 46.0307ZM211.65 34.4688L210.692 34.1828L212.506 34.9865L211.65 34.4688ZM218.306 23.4688L217.454 22.9464L217.451 22.951L218.306 23.4688ZM222.65 18.25L222.036 17.4606L222.031 17.4648L222.65 18.25ZM229.431 16.8438L228.91 17.697L228.92 17.7032L228.93 17.7092L229.431 16.8438ZM230.369 18.4062L229.406 18.6777L229.41 18.6891L229.413 18.7003L230.369 18.4062ZM230.025 22L229.068 21.7103L229.064 21.7229L229.061 21.7355L230.025 22ZM222.869 48.0938L221.904 47.8293L221.896 47.86L221.889 47.8911L222.869 48.0938ZM217.994 47.4688L217.037 47.1763L217.035 47.1851L217.032 47.194L217.994 47.4688ZM224.713 25.5L225.669 25.7925L225.673 25.7793L224.713 25.5ZM223.713 23.2812L224.4 24.0072L224.401 24.0062L223.713 23.2812ZM222.088 25.375L222.908 25.9465L222.913 25.9401L222.917 25.9336L222.088 25.375ZM214.806 36.7812L215.643 37.3296L215.648 37.321L214.806 36.7812ZM207.806 48.0938L208.682 48.5768L208.684 48.5726L207.806 48.0938ZM203.869 48.5L204.763 48.0528L204.758 48.0424L204.753 48.0321L203.869 48.5ZM203.775 47.3438L204.733 47.6311L204.737 47.6158L204.742 47.6004L203.775 47.3438ZM211.525 18.1562L212.492 18.4129L212.501 18.3776L212.508 18.3417L211.525 18.1562ZM216.463 18.3438L217.421 18.6297L217.424 18.6177L217.428 18.6055L216.463 18.3438ZM212.506 34.9865L219.162 23.9865L217.451 22.951L210.794 33.951L212.506 34.9865ZM219.159 23.9911C220.539 21.7388 221.914 20.1042 223.269 19.0352L222.031 17.4648C220.428 18.7292 218.907 20.5737 217.454 22.9464L219.159 23.9911ZM223.264 19.0394C224.711 17.9139 225.771 17.5 226.494 17.5V15.5C225.092 15.5 223.589 16.2528 222.036 17.4606L223.264 19.0394ZM226.494 17.5H227.838V15.5H226.494V17.5ZM227.838 17.5C228.436 17.5 228.757 17.6035 228.91 17.697L229.953 15.9905C229.356 15.6256 228.614 15.5 227.838 15.5V17.5ZM228.93 17.7092C228.974 17.7344 229.194 17.9253 229.406 18.6777L231.331 18.1348C231.085 17.2622 230.68 16.4114 229.932 15.9783L228.93 17.7092ZM229.413 18.7003C229.571 19.2136 229.535 20.1664 229.068 21.7103L230.982 22.2897C231.473 20.6669 231.667 19.2239 231.325 18.1122L229.413 18.7003ZM229.061 21.7355L221.904 47.8293L223.833 48.3582L230.989 22.2645L229.061 21.7355ZM221.889 47.8911C221.873 47.9708 221.855 48.0134 221.846 48.0308C221.838 48.0462 221.839 48.0379 221.857 48.0223C221.876 48.0058 221.894 47.9973 221.902 47.9947C221.907 47.993 221.889 48 221.838 48V50C222.304 50 222.784 49.8706 223.177 49.5246C223.561 49.1876 223.757 48.7378 223.848 48.2964L221.889 47.8911ZM221.838 48H218.494V50H221.838V48ZM218.494 48C218.468 48 218.545 47.9945 218.653 48.0638C218.774 48.1418 218.832 48.2483 218.851 48.3068C218.864 48.3474 218.849 48.3317 218.858 48.22C218.866 48.1135 218.894 47.9576 218.955 47.7435L217.032 47.194C216.876 47.7403 216.768 48.372 216.949 48.9276C217.052 49.2413 217.25 49.5392 217.569 49.7448C217.874 49.9417 218.207 50 218.494 50V48ZM218.95 47.7612L225.669 25.7925L223.756 25.2075L217.037 47.1763L218.95 47.7612ZM225.673 25.7793C225.842 25.1957 225.974 24.6991 226.064 24.2951C226.149 23.9116 226.213 23.5443 226.213 23.25H224.213C224.213 23.3099 224.193 23.4947 224.111 23.8612C224.034 24.2071 223.916 24.6585 223.752 25.2207L225.673 25.7793ZM226.213 23.25C226.213 22.9605 226.161 22.5593 225.892 22.2142C225.587 21.8213 225.151 21.6875 224.775 21.6875V23.6875C224.742 23.6875 224.667 23.6823 224.572 23.6418C224.472 23.5987 224.381 23.529 224.314 23.4421C224.191 23.2844 224.213 23.1645 224.213 23.25H226.213ZM224.775 21.6875C224.072 21.6875 223.47 22.1326 223.024 22.5563L224.401 24.0062C224.572 23.8441 224.697 23.7541 224.778 23.7089C224.862 23.6623 224.854 23.6875 224.775 23.6875V21.6875ZM223.025 22.5553C222.542 23.0124 221.949 23.7912 221.258 24.8164L222.917 25.9336C223.602 24.9171 224.091 24.3001 224.4 24.0072L223.025 22.5553ZM221.267 24.8035C220.44 25.9908 219.45 27.5181 218.299 29.3806L220.001 30.4319C221.141 28.5861 222.11 27.0925 222.908 25.9465L221.267 24.8035ZM218.299 29.3806C217.157 31.2283 215.713 33.515 213.964 36.2415L215.648 37.321C217.4 34.5892 218.851 32.2925 220.001 30.4319L218.299 29.3806ZM213.97 36.233C210.676 41.2576 208.324 45.0566 206.928 47.6149L208.684 48.5726C210.039 46.0893 212.353 42.3466 215.643 37.3295L213.97 36.233ZM206.931 47.6107C206.836 47.7823 206.742 47.8667 206.664 47.9129C206.586 47.959 206.468 48 206.275 48V50C206.769 50 207.25 49.89 207.683 49.634C208.115 49.3781 208.443 49.0093 208.682 48.5768L206.931 47.6107ZM206.275 48H204.494V50H206.275V48ZM204.494 48C204.545 48 204.601 48.0089 204.656 48.029C204.71 48.0487 204.75 48.0741 204.775 48.0941C204.819 48.1296 204.806 48.1381 204.763 48.0528L202.974 48.9472C203.217 49.4332 203.694 50 204.494 50V48ZM204.753 48.0321C204.699 47.9312 204.676 47.8198 204.733 47.6311L202.817 47.0564C202.624 47.7011 202.663 48.3605 202.985 48.9679L204.753 48.0321ZM204.742 47.6004L212.492 18.4129L210.558 17.8996L202.808 47.0871L204.742 47.6004ZM212.508 18.3417C212.598 17.8605 212.717 17.6232 212.793 17.5259C212.824 17.4855 212.835 17.485 212.82 17.4927C212.803 17.5016 212.792 17.5 212.806 17.5V15.5C212.146 15.5 211.596 15.8041 211.211 16.3022C210.859 16.757 210.66 17.3479 210.542 17.9708L212.508 18.3417ZM212.806 17.5H215.431V15.5H212.806V17.5ZM215.431 17.5C215.593 17.5 215.656 17.5254 215.659 17.527C215.659 17.527 215.656 17.5254 215.649 17.5213C215.643 17.5172 215.635 17.5112 215.626 17.5031C215.606 17.4858 215.591 17.4661 215.582 17.4491C215.564 17.4166 215.585 17.4306 215.586 17.5428C215.586 17.656 215.565 17.8313 215.497 18.082L217.428 18.6055C217.612 17.9239 217.697 17.1339 217.327 16.4728C216.905 15.7183 216.123 15.5 215.431 15.5V17.5ZM215.504 18.0578L210.692 34.1828L212.608 34.7547L217.421 18.6297L215.504 18.0578ZM241.913 34.4688L240.954 34.1828L242.768 34.9865L241.913 34.4688ZM248.569 23.4688L247.716 22.9464L247.713 22.951L248.569 23.4688ZM252.913 18.25L252.299 17.4606L252.293 17.4648L252.913 18.25ZM259.694 16.8438L259.172 17.697L259.182 17.7032L259.193 17.7092L259.694 16.8438ZM260.631 18.4062L259.669 18.6777L259.672 18.6891L259.675 18.7003L260.631 18.4062ZM260.288 22L259.33 21.7103L259.327 21.7229L259.323 21.7355L260.288 22ZM253.131 48.0938L252.167 47.8293L252.158 47.86L252.152 47.8911L253.131 48.0938ZM248.256 47.4688L247.3 47.1763L247.297 47.1851L247.295 47.194L248.256 47.4688ZM254.975 25.5L255.931 25.7925L255.935 25.7793L254.975 25.5ZM253.975 23.2812L254.663 24.0072L254.664 24.0062L253.975 23.2812ZM252.35 25.375L253.171 25.9465L253.175 25.9401L253.179 25.9336L252.35 25.375ZM245.069 36.7812L245.905 37.3296L245.911 37.321L245.069 36.7812ZM238.069 48.0938L238.944 48.5768L238.947 48.5726L238.069 48.0938ZM234.131 48.5L235.026 48.0528L235.02 48.0424L235.015 48.0321L234.131 48.5ZM234.038 47.3438L234.995 47.6311L235 47.6158L235.004 47.6004L234.038 47.3438ZM241.788 18.1562L242.754 18.4129L242.763 18.3776L242.77 18.3417L241.788 18.1562ZM246.725 18.3438L247.683 18.6297L247.687 18.6177L247.69 18.6055L246.725 18.3438ZM242.768 34.9865L249.424 23.9865L247.713 22.951L241.057 33.951L242.768 34.9865ZM249.421 23.9911C250.801 21.7388 252.176 20.1042 253.532 19.0352L252.293 17.4648C250.69 18.7292 249.17 20.5737 247.716 22.9464L249.421 23.9911ZM253.526 19.0394C254.974 17.9139 256.033 17.5 256.756 17.5V15.5C255.354 15.5 253.851 16.2528 252.299 17.4606L253.526 19.0394ZM256.756 17.5H258.1V15.5H256.756V17.5ZM258.1 17.5C258.699 17.5 259.019 17.6035 259.172 17.697L260.215 15.9905C259.618 15.6256 258.876 15.5 258.1 15.5V17.5ZM259.193 17.7092C259.236 17.7344 259.457 17.9253 259.669 18.6777L261.594 18.1348C261.348 17.2622 260.943 16.4114 260.195 15.9783L259.193 17.7092ZM259.675 18.7003C259.833 19.2136 259.798 20.1664 259.33 21.7103L261.245 22.2897C261.736 20.6669 261.929 19.2239 261.587 18.1122L259.675 18.7003ZM259.323 21.7355L252.167 47.8293L254.096 48.3582L261.252 22.2645L259.323 21.7355ZM252.152 47.8911C252.136 47.9708 252.117 48.0134 252.108 48.0308C252.1 48.0462 252.102 48.0379 252.12 48.0223C252.138 48.0058 252.157 47.9973 252.165 47.9947C252.17 47.993 252.152 48 252.1 48V50C252.566 50 253.046 49.8706 253.44 49.5246C253.823 49.1876 254.019 48.7378 254.111 48.2964L252.152 47.8911ZM252.1 48H248.756V50H252.1V48ZM248.756 48C248.731 48 248.808 47.9945 248.915 48.0638C249.036 48.1418 249.094 48.2483 249.113 48.3068C249.126 48.3474 249.111 48.3317 249.12 48.22C249.129 48.1135 249.157 47.9576 249.218 47.7435L247.295 47.194C247.139 47.7403 247.03 48.372 247.212 48.9276C247.314 49.2413 247.513 49.5392 247.832 49.7448C248.137 49.9417 248.469 50 248.756 50V48ZM249.213 47.7612L255.931 25.7925L254.019 25.2075L247.3 47.1763L249.213 47.7612ZM255.935 25.7793C256.105 25.1957 256.236 24.6991 256.326 24.2951C256.411 23.9116 256.475 23.5443 256.475 23.25H254.475C254.475 23.3099 254.455 23.4947 254.374 23.8612C254.297 24.2071 254.178 24.6585 254.015 25.2207L255.935 25.7793ZM256.475 23.25C256.475 22.9605 256.423 22.5593 256.155 22.2142C255.849 21.8213 255.414 21.6875 255.038 21.6875V23.6875C255.005 23.6875 254.929 23.6823 254.835 23.6418C254.734 23.5987 254.644 23.529 254.576 23.4421C254.454 23.2844 254.475 23.1645 254.475 23.25H256.475ZM255.038 21.6875C254.334 21.6875 253.732 22.1326 253.286 22.5563L254.664 24.0062C254.834 23.8441 254.96 23.7541 255.041 23.7089C255.124 23.6623 255.116 23.6875 255.038 23.6875V21.6875ZM253.287 22.5553C252.805 23.0124 252.211 23.7912 251.521 24.8164L253.179 25.9336C253.864 24.9171 254.354 24.3001 254.663 24.0072L253.287 22.5553ZM251.529 24.8035C250.703 25.9908 249.713 27.5181 248.562 29.3806L250.263 30.4319C251.404 28.5861 252.372 27.0925 253.171 25.9465L251.529 24.8035ZM248.562 29.3806C247.42 31.2283 245.975 33.515 244.227 36.2415L245.911 37.321C247.662 34.5892 249.113 32.2925 250.263 30.4319L248.562 29.3806ZM244.232 36.233C240.938 41.2576 238.586 45.0566 237.191 47.6149L238.947 48.5726C240.301 46.0893 242.616 42.3466 245.905 37.3295L244.232 36.233ZM237.193 47.6107C237.098 47.7823 237.005 47.8667 236.927 47.9129C236.849 47.959 236.731 48 236.538 48V50C237.032 50 237.513 49.89 237.945 49.634C238.378 49.3781 238.706 49.0093 238.944 48.5768L237.193 47.6107ZM236.538 48H234.756V50H236.538V48ZM234.756 48C234.807 48 234.863 48.0089 234.918 48.029C234.973 48.0487 235.012 48.0741 235.037 48.0941C235.082 48.1296 235.068 48.1381 235.026 48.0528L233.237 48.9472C233.48 49.4332 233.957 50 234.756 50V48ZM235.015 48.0321C234.962 47.9312 234.939 47.8198 234.995 47.6311L233.08 47.0564C232.886 47.7011 232.926 48.3605 233.247 48.9679L235.015 48.0321ZM235.004 47.6004L242.754 18.4129L240.821 17.8996L233.071 47.0871L235.004 47.6004ZM242.77 18.3417C242.861 17.8605 242.98 17.6232 243.055 17.5259C243.086 17.4855 243.098 17.485 243.083 17.4927C243.066 17.5016 243.055 17.5 243.069 17.5V15.5C242.409 15.5 241.858 15.8041 241.473 16.3022C241.121 16.757 240.922 17.3479 240.805 17.9708L242.77 18.3417ZM243.069 17.5H245.694V15.5H243.069V17.5ZM245.694 17.5C245.856 17.5 245.918 17.5254 245.922 17.527C245.922 17.527 245.918 17.5254 245.912 17.5213C245.905 17.5172 245.897 17.5112 245.888 17.5031C245.869 17.4858 245.854 17.4661 245.844 17.4491C245.826 17.4166 245.847 17.4306 245.848 17.5428C245.849 17.656 245.828 17.8313 245.76 18.082L247.69 18.6055C247.875 17.9239 247.96 17.1339 247.59 16.4728C247.168 15.7183 246.386 15.5 245.694 15.5V17.5ZM245.767 18.0578L240.954 34.1828L242.871 34.7547L247.683 18.6297L245.767 18.0578ZM269.175 40.1562L268.842 39.2132L268.298 39.4052L268.192 39.9728L269.175 40.1562ZM270.925 45.3438L270.738 46.3261L271.013 46.3784L271.275 46.2806L270.925 45.3438ZM276.737 40.5625L276.071 39.8173L276.028 39.8556L275.99 39.8985L276.737 40.5625ZM278.019 40.4375L278.543 39.5858L278.535 39.5811L278.527 39.5766L278.019 40.4375ZM279.237 41.1875L279.851 40.3981L279.808 40.3645L279.762 40.3358L279.237 41.1875ZM279.8 42.5938L280.685 43.06L280.714 43.0041L280.736 42.9449L279.8 42.5938ZM270.019 49.7188L269.771 50.6877L269.803 50.6957L269.834 50.7016L270.019 49.7188ZM264.706 44.9688L263.724 45.1538L263.726 45.1675L263.729 45.1812L264.706 44.9688ZM273.269 19.0625L272.592 18.3266L272.584 18.3334L272.577 18.3404L273.269 19.0625ZM277.144 16.9375L277.429 17.8961L277.437 17.8936L277.144 16.9375ZM282.081 17.3125L282.47 16.3911L282.081 17.3125ZM280.112 33.3125L279.398 32.6127L279.398 32.6128L280.112 33.3125ZM269.956 36L268.982 35.7739L268.536 37.6937L270.349 36.9196L269.956 36ZM275.081 33L274.458 32.218L274.452 32.2225L275.081 33ZM278.612 28.8125L277.744 28.3175L277.739 28.3259L278.612 28.8125ZM273.362 25.9688L272.454 25.5501L272.453 25.5527L273.362 25.9688ZM268.192 39.9728C267.889 41.5951 267.854 43.0106 268.227 44.1165C268.631 45.3127 269.498 46.0899 270.738 46.3261L271.112 44.3614C270.602 44.2643 270.302 44.0102 270.123 43.4772C269.912 42.854 269.878 41.8424 270.158 40.3397L268.192 39.9728ZM271.275 46.2806C273.083 45.6056 275.158 43.8473 277.485 41.2265L275.99 39.8985C273.692 42.486 271.892 43.9152 270.575 44.4069L271.275 46.2806ZM277.404 41.3077C277.444 41.2719 277.468 41.2594 277.474 41.2566C277.478 41.2547 277.469 41.2592 277.452 41.2609C277.434 41.2626 277.426 41.2598 277.43 41.2611C277.437 41.2628 277.463 41.2707 277.51 41.2984L278.527 39.5766C278.16 39.3596 277.728 39.2244 277.258 39.2704C276.786 39.3163 276.389 39.5326 276.071 39.8173L277.404 41.3077ZM277.495 41.2892L278.713 42.0392L279.762 40.3358L278.543 39.5858L277.495 41.2892ZM278.624 41.9769C278.819 42.1292 278.865 42.2232 278.872 42.2386C278.873 42.2427 278.87 42.2361 278.87 42.2246C278.87 42.2141 278.873 42.2184 278.864 42.2426L280.736 42.9449C280.912 42.4762 280.92 41.9758 280.728 41.4958C280.547 41.0425 280.218 40.6833 279.851 40.3981L278.624 41.9769ZM278.915 42.1275C278.195 43.4938 276.816 45.0269 274.68 46.7155L275.92 48.2845C278.159 46.5148 279.78 44.777 280.685 43.06L278.915 42.1275ZM274.68 46.7155C273.628 47.5472 272.72 48.1069 271.952 48.4296C271.181 48.7533 270.614 48.8129 270.203 48.7359L269.834 50.7016C270.757 50.8746 271.736 50.6894 272.726 50.2735C273.719 49.8566 274.785 49.1819 275.92 48.2845L274.68 46.7155ZM270.266 48.7498C267.494 48.0423 266.101 46.676 265.683 44.7563L263.729 45.1812C264.353 48.0531 266.502 49.8535 269.771 50.6877L270.266 48.7498ZM265.689 44.7837C265.129 41.811 265.607 37.5895 267.258 32.0351L265.341 31.4649C263.66 37.1189 263.075 41.7098 263.724 45.1538L265.689 44.7837ZM267.258 32.0351C268.895 26.5317 271.148 22.4789 273.961 19.7846L272.577 18.3404C269.431 21.3544 267.038 25.76 265.341 31.4649L267.258 32.0351ZM273.946 19.7984C274.861 18.9564 276.013 18.3169 277.429 17.896L276.859 15.979C275.191 16.4747 273.76 17.2519 272.592 18.3266L273.946 19.7984ZM277.437 17.8936C278.742 17.4932 280.146 17.5816 281.693 18.2339L282.47 16.3911C280.558 15.585 278.67 15.4234 276.851 15.9814L277.437 17.8936ZM281.693 18.2339C282.806 18.7035 283.664 20.1697 283.644 23.5564L285.644 23.5686C285.665 20.0803 284.815 17.3799 282.47 16.3911L281.693 18.2339ZM283.644 23.5564C283.625 26.674 282.264 29.6874 279.398 32.6127L280.827 34.0123C283.961 30.8126 285.621 27.326 285.644 23.5686L283.644 23.5564ZM279.398 32.6128C276.534 35.5372 273.022 37.7394 268.842 39.2132L269.508 41.0993C273.953 39.5315 277.733 37.1711 280.827 34.0122L279.398 32.6128ZM270.349 36.9196C272.418 36.036 274.209 34.9913 275.71 33.7775L274.452 32.2225C273.12 33.3003 271.494 34.2557 269.563 35.0804L270.349 36.9196ZM275.705 33.782C277.246 32.5529 278.508 31.0559 279.486 29.2991L277.739 28.3259C276.884 29.8608 275.791 31.1554 274.458 32.218L275.705 33.782ZM279.481 29.3075C280.496 27.5256 281.019 25.669 281.019 23.75H279.019C279.019 25.2894 278.604 26.8077 277.744 28.3175L279.481 29.3075ZM281.019 23.75C281.019 22.8218 280.89 21.9627 280.509 21.3041C280.08 20.5622 279.375 20.1562 278.519 20.1562V22.1562C278.621 22.1562 278.662 22.177 278.676 22.1847C278.689 22.1924 278.727 22.2175 278.778 22.3053C278.897 22.5112 279.019 22.949 279.019 23.75H281.019ZM278.519 20.1562C275.925 20.1562 273.96 22.2838 272.454 25.5501L274.271 26.3874C275.723 23.237 277.196 22.1562 278.519 22.1562V20.1562ZM272.453 25.5527C270.966 28.8027 269.809 32.2102 268.982 35.7739L270.93 36.2261C271.728 32.7898 272.842 29.5098 274.272 26.3848L272.453 25.5527ZM308.156 20.0625L307.41 20.7285L307.419 20.7386L307.429 20.7485L308.156 20.0625ZM308.406 22.0625L309.16 22.7196L309.164 22.7154L308.406 22.0625ZM307.344 23.2812L308.088 23.9492L308.093 23.9438L308.098 23.9384L307.344 23.2812ZM305.406 23.5938L304.656 24.2544L304.665 24.2649L304.674 24.2752L305.406 23.5938ZM304.719 22.8125L305.469 22.1519L305.451 22.1305L305.431 22.1102L304.719 22.8125ZM301.062 20.7812L301.248 21.7638L301.269 21.76L301.289 21.7553L301.062 20.7812ZM296.188 25.7188L297.055 26.2162L297.056 26.2136L296.188 25.7188ZM292.5 34.9688L291.527 34.7397L291.526 34.7444L292.5 34.9688ZM291.969 42.9062L292.956 42.7483L292.955 42.7404L292.954 42.7325L291.969 42.9062ZM293.156 44.3438L292.631 45.1945L292.64 45.2002L292.649 45.2057L293.156 44.3438ZM294.781 44.8438L294.998 45.8199L295.131 45.7904L295.251 45.7265L294.781 44.8438ZM299.062 41L299.831 41.6402L299.849 41.6185L299.866 41.5958L299.062 41ZM301.125 40.875L301.667 40.0346L301.657 40.0281L301.125 40.875ZM302.094 41.5L301.552 42.3403L301.565 42.3491L301.579 42.3575L302.094 41.5ZM298.625 47.1562L297.997 46.378L297.987 46.3863L297.977 46.3948L298.625 47.1562ZM295.031 49.4688L294.772 48.5029L294.761 48.5058L294.75 48.509L295.031 49.4688ZM291.156 48.5312L290.7 49.4213L290.705 49.4235L291.156 48.5312ZM288 45.9375L287.09 46.3524L287.093 46.358L288 45.9375ZM287.938 34.8438L288.91 35.0763L288.91 35.0754L287.938 34.8438ZM292.156 23.8125L291.32 23.2641L292.156 23.8125ZM297.062 18.0312L297.696 18.8052L297.702 18.8003L297.062 18.0312ZM302.25 16.3125L302.149 17.3075L302.16 17.3085L302.25 16.3125ZM307.429 20.7485C307.695 21.0308 307.737 21.1915 307.742 21.2334C307.744 21.2486 307.743 21.2576 307.738 21.2721C307.732 21.2907 307.711 21.3371 307.649 21.4096L309.164 22.7154C309.571 22.243 309.81 21.6519 309.727 20.9853C309.649 20.3606 309.305 19.8234 308.884 19.3765L307.429 20.7485ZM307.652 21.4054L306.59 22.6241L308.098 23.9384L309.16 22.7196L307.652 21.4054ZM306.6 22.6133C306.456 22.7727 306.342 22.8699 306.258 22.9258C306.175 22.9811 306.141 22.9834 306.153 22.9815C306.175 22.9781 306.206 22.9817 306.226 22.99C306.238 22.9948 306.206 22.9851 306.138 22.9123L304.674 24.2752C305.116 24.7493 305.733 25.0752 306.472 24.956C307.128 24.8501 307.664 24.4211 308.088 23.9492L306.6 22.6133ZM306.157 22.9331L305.469 22.1519L303.968 23.4731L304.656 24.2544L306.157 22.9331ZM305.431 22.1102C304.627 21.2953 303.86 20.662 303.134 20.2587C302.416 19.8599 301.624 19.624 300.836 19.8072L301.289 21.7553C301.397 21.7302 301.662 21.7286 302.163 22.007C302.656 22.2807 303.269 22.7672 304.007 23.5148L305.431 22.1102ZM300.877 19.7987C299.832 19.9963 298.867 20.6293 297.976 21.5318C297.08 22.4392 296.197 23.6814 295.319 25.2239L297.056 26.2136C297.886 24.7561 298.67 23.6754 299.399 22.937C300.133 22.1936 300.751 21.8579 301.248 21.7638L300.877 19.7987ZM295.32 25.2213C293.566 28.2802 292.3 31.4536 291.527 34.7397L293.473 35.1978C294.2 32.1089 295.392 29.1156 297.055 26.2162L295.32 25.2213ZM291.526 34.7444C290.78 37.9819 290.577 40.7736 290.984 43.08L292.954 42.7325C292.611 40.7889 292.762 38.289 293.474 35.1931L291.526 34.7444ZM290.981 43.0642C291.132 44.0036 291.817 44.6918 292.631 45.1945L293.682 43.493C293.079 43.1207 292.973 42.8506 292.956 42.7483L290.981 43.0642ZM292.649 45.2057C293.043 45.4375 293.429 45.6231 293.8 45.737C294.163 45.8488 294.58 45.9129 294.998 45.8199L294.564 43.8676C294.608 43.8579 294.566 43.8804 294.388 43.8255C294.216 43.7727 293.978 43.6667 293.663 43.4818L292.649 45.2057ZM295.251 45.7265C296.708 44.9508 298.233 43.557 299.831 41.6402L298.294 40.3598C296.767 42.193 295.437 43.3617 294.311 43.961L295.251 45.7265ZM299.866 41.5958C299.92 41.522 299.958 41.497 299.969 41.4904C299.976 41.4862 299.981 41.4836 299.998 41.4825C300.049 41.4795 300.233 41.4959 300.593 41.7219L301.657 40.0281C301.121 39.6916 300.514 39.4476 299.877 39.4862C299.188 39.528 298.642 39.8882 298.259 40.4042L299.866 41.5958ZM300.583 41.7153L301.552 42.3403L302.636 40.6597L301.667 40.0347L300.583 41.7153ZM301.579 42.3575C301.649 42.3993 301.661 42.4227 301.654 42.4129C301.644 42.398 301.641 42.3815 301.641 42.3837C301.644 42.4169 301.633 42.6043 301.39 43.0007C300.907 43.7872 299.819 44.9082 297.997 46.378L299.253 47.9345C301.098 46.446 302.421 45.1451 303.095 44.0462C303.43 43.4999 303.683 42.8787 303.636 42.2374C303.583 41.518 303.172 40.9808 302.608 40.6425L301.579 42.3575ZM297.977 46.3948C296.439 47.7043 295.39 48.3372 294.772 48.5029L295.29 50.4346C296.381 50.1419 297.728 49.2332 299.273 47.9177L297.977 46.3948ZM294.75 48.509C294.554 48.5664 294.211 48.5838 293.657 48.4499C293.112 48.318 292.432 48.056 291.608 47.639L290.705 49.4235C291.61 49.8815 292.44 50.2133 293.187 50.3938C293.925 50.5724 294.654 50.6211 295.312 50.4285L294.75 48.509ZM291.612 47.6412C289.931 46.78 289.152 46.0445 288.907 45.517L287.093 46.358C287.64 47.5388 288.965 48.5325 290.7 49.4213L291.612 47.6412ZM288.91 45.5226C287.861 43.2223 287.782 39.7922 288.91 35.0763L286.965 34.6112C285.801 39.4786 285.764 43.4444 287.09 46.3524L288.91 45.5226ZM288.91 35.0754C290.044 30.314 291.417 26.764 292.992 24.3609L291.32 23.2641C289.563 25.9443 288.123 29.7485 286.965 34.6121L288.91 35.0754ZM292.992 24.3609C294.627 21.8685 296.198 20.0308 297.696 18.8052L296.429 17.2573C294.719 18.6567 293.019 20.6732 291.32 23.2641L292.992 24.3609ZM297.702 18.8003C299.127 17.616 300.595 17.1503 302.149 17.3074L302.351 15.3176C300.197 15.0997 298.207 15.7798 296.423 17.2622L297.702 18.8003ZM302.16 17.3085C303.638 17.4413 305.389 18.4643 307.41 20.7285L308.902 19.3965C306.757 16.994 304.571 15.5171 302.34 15.3165L302.16 17.3085ZM325.575 6.625L324.606 6.37762L324.606 6.37958L325.575 6.625ZM323.075 16.5L322.106 16.2546L321.79 17.5H323.075V16.5ZM327.356 17.9062L326.401 17.6092L326.395 17.6299L326.389 17.6509L327.356 17.9062ZM326.919 19.5625L327.867 19.8787L327.877 19.8486L327.886 19.8179L326.919 19.5625ZM321.919 20.9688V19.9688H321.142L320.95 20.7219L321.919 20.9688ZM315.138 47.5938L316.104 47.8514L316.107 47.8406L315.138 47.5938ZM310.544 48.4375L309.718 49.0022L309.736 49.0274L309.754 49.0514L310.544 48.4375ZM310.325 46.9375L309.356 46.6892L309.351 46.7119L309.346 46.7349L310.325 46.9375ZM316.981 20.9688L317.95 21.217L318.27 19.9688H316.981V20.9688ZM313.606 19.4375L314.563 19.7302L314.566 19.7168L313.606 19.4375ZM314.106 17.7188L313.15 17.4247L313.148 17.432L313.146 17.4394L314.106 17.7188ZM318.075 16.5V17.5H318.85L319.043 16.7497L318.075 16.5ZM320.638 6.5625L319.671 6.30483L319.669 6.31281L320.638 6.5625ZM324.606 6.37958L322.106 16.2546L324.044 16.7454L326.544 6.87042L324.606 6.37958ZM323.075 17.5H326.388V15.5H323.075V17.5ZM326.388 17.5C326.464 17.5 326.521 17.5048 326.562 17.511C326.604 17.5172 326.623 17.5239 326.627 17.5252C326.63 17.5263 326.614 17.5208 326.589 17.5025C326.563 17.4833 326.534 17.4553 326.509 17.4189C326.484 17.3828 326.471 17.3496 326.464 17.3269C326.458 17.3055 326.46 17.2989 326.46 17.3132C326.46 17.3279 326.459 17.3594 326.451 17.4107C326.442 17.4618 326.427 17.5275 326.401 17.6092L328.311 18.2033C328.484 17.6471 328.585 16.9072 328.156 16.2843C327.713 15.6402 326.97 15.5 326.388 15.5V17.5ZM326.389 17.6509L325.952 19.3071L327.886 19.8179L328.323 18.1616L326.389 17.6509ZM325.97 19.2463C325.853 19.5984 325.719 19.7684 325.622 19.849C325.541 19.9169 325.431 19.9688 325.231 19.9688V21.9688C325.844 21.9688 326.422 21.7862 326.903 21.3854C327.368 20.9972 327.672 20.4641 327.867 19.8787L325.97 19.2463ZM325.231 19.9688H321.919V21.9688H325.231V19.9688ZM320.95 20.7219L314.168 47.3469L316.107 47.8406L322.888 21.2156L320.95 20.7219ZM314.171 47.3361C314.092 47.6325 313.978 47.767 313.878 47.8391C313.772 47.9165 313.574 48 313.2 48V50C313.868 50 314.514 49.8491 315.053 49.4577C315.599 49.0611 315.933 48.4925 316.104 47.8514L314.171 47.3361ZM313.2 48H312.013V50H313.2V48ZM312.013 48C311.489 48 311.362 47.8602 311.333 47.8236L309.754 49.0514C310.309 49.7648 311.161 50 312.013 50V48ZM311.369 47.8728C311.292 47.7608 311.218 47.5584 311.304 47.1401L309.346 46.7349C309.182 47.5249 309.253 48.3225 309.718 49.0022L311.369 47.8728ZM311.294 47.1858L317.95 21.217L316.013 20.7205L309.356 46.6892L311.294 47.1858ZM316.981 19.9688H314.419V21.9688H316.981V19.9688ZM314.419 19.9688C314.297 19.9688 314.272 19.9493 314.301 19.9624C314.318 19.9703 314.348 19.9869 314.38 20.017C314.414 20.0477 314.44 20.0829 314.458 20.1172C314.494 20.1838 314.479 20.2078 314.481 20.1346C314.483 20.0608 314.501 19.9304 314.562 19.7302L312.65 19.1448C312.476 19.7149 312.362 20.4326 312.692 21.0547C313.077 21.78 313.818 21.9688 314.419 21.9688V19.9688ZM314.566 19.7168L315.066 17.9981L313.146 17.4394L312.646 19.1582L314.566 19.7168ZM315.062 18.0128C315.152 17.7216 315.251 17.6034 315.3 17.5604C315.333 17.5322 315.381 17.5 315.513 17.5V15.5C314.956 15.5 314.427 15.6709 313.99 16.049C313.571 16.4123 313.311 16.9034 313.15 17.4247L315.062 18.0128ZM315.513 17.5H318.075V15.5H315.513V17.5ZM319.043 16.7497L321.606 6.81219L319.669 6.31281L317.107 16.2503L319.043 16.7497ZM321.604 6.82016C321.684 6.51914 321.799 6.38351 321.895 6.31254C321.997 6.23775 322.184 6.15625 322.544 6.15625V4.15625C321.882 4.15625 321.242 4.30913 320.708 4.70309C320.169 5.10087 319.841 5.66836 319.671 6.30484L321.604 6.82016ZM322.544 6.15625H324.169V4.15625H322.544V6.15625ZM324.169 6.15625C324.403 6.15625 324.553 6.18107 324.641 6.20703C324.726 6.23212 324.721 6.24844 324.689 6.21501C324.673 6.19853 324.659 6.1781 324.649 6.15707C324.639 6.13683 324.638 6.12553 324.639 6.12973C324.641 6.14344 324.647 6.21802 324.606 6.37762L326.544 6.87238C326.709 6.22476 326.71 5.43412 326.133 4.83187C325.61 4.28522 324.844 4.15625 324.169 4.15625V6.15625Z" fill="#0D80F4" mask="url(#path-1-outside-1_1_2)"/>
</g>
<defs>
<filter id="filter0_d_1_2" x="0.612503" y="0.4375" width="331.181" height="57.6562" filterUnits="userSpaceOnUse" color-interpolation-filters="sRGB">
<feFlood flood-opacity="0" result="BackgroundImageFix"/>
<feColorMatrix in="SourceAlpha" type="matrix" values="0 0 0 0 0 0 0 0 0 0 0 0 0 0 0 0 0 0 127 0" result="hardAlpha"/>
<feOffset dy="4"/>
<feGaussianBlur stdDeviation="2"/>
<feComposite in2="hardAlpha" operator="out"/>
<feColorMatrix type="matrix" values="0 0 0 0 0 0 0 0 0 0 0 0 0 0 0 0 0 0 0.25 0"/>
<feBlend mode="normal" in2="BackgroundImageFix" result="effect1_dropShadow_1_2"/>
<feBlend mode="normal" in="SourceGraphic" in2="effect1_dropShadow_1_2" result="shape"/>
</filter>
</defs>
</svg>
